<svg width="80" height="80" viewBox="0 0 80 80" fill="none"
	 xmlns="http://www.w3.org/2000/svg">
	<path
		d="M51.6667 38.7812H28.3333C26.4924 38.7812 25 40.2736 25 42.1146V53.7813C25 55.6222 26.4924 57.1146 28.3333 57.1146H51.6667C53.5076 57.1146 55 55.6222 55 53.7813V42.1146C55 40.2736 53.5076 38.7812 51.6667 38.7812Z"
		stroke="#60E09F" stroke-width="2" stroke-linecap="round"
		stroke-linejoin="round"/>
	<path
		d="M31.6667 38.7812V32.1146C31.6667 29.9044 32.5447 27.7848 34.1075 26.222C35.6703 24.6592 37.7899 23.7812 40 23.7812C42.2102 23.7812 44.3298 24.6592 45.8926 26.222C47.4554 27.7848 48.3334 29.9044 48.3334 32.1146V38.7812"
		stroke="#60E09F" stroke-width="2" stroke-linecap="round"
		stroke-linejoin="round"/>
</svg>
