<svg width="17" height="17" viewBox="0 0 17 17" fill="none"
	 xmlns="http://www.w3.org/2000/svg">
	<path
		d="M13.8333 6.5H7.83333C7.09695 6.5 6.5 7.09695 6.5 7.83333V13.8333C6.5 14.5697 7.09695 15.1667 7.83333 15.1667H13.8333C14.5697 15.1667 15.1667 14.5697 15.1667 13.8333V7.83333C15.1667 7.09695 14.5697 6.5 13.8333 6.5Z"
		stroke="white" stroke-linecap="round" stroke-linejoin="round"/>
	<path
		d="M3.83337 10.4999H3.16671C2.81309 10.4999 2.47395 10.3594 2.2239 10.1094C1.97385 9.85935 1.83337 9.52021 1.83337 9.16659V3.16659C1.83337 2.81296 1.97385 2.47382 2.2239 2.22378C2.47395 1.97373 2.81309 1.83325 3.16671 1.83325H9.16671C9.52033 1.83325 9.85947 1.97373 10.1095 2.22378C10.3596 2.47382 10.5 2.81296 10.5 3.16659V3.83325"
		stroke="white" stroke-linecap="round" stroke-linejoin="round"/>
</svg>
