<svg xmlns="http://www.w3.org/2000/svg" width="17" height="13" viewBox="0 0 17 13" fill="none">
  <path d="M6.08609 11.689C8.79475 11.689 10.9905 9.49323 10.9905 6.78458C10.9905 4.07592 8.79475 1.88013 6.08609 1.88013C3.37744 1.88013 1.18164 4.07592 1.18164 6.78458C1.18164 9.49323 3.37744 11.689 6.08609 11.689Z" stroke="#E138BB" stroke-miterlimit="10"/>
  <path d="M6.45264 9.56396C4.71485 9.56396 3.30664 8.15576 3.30664 6.41797" stroke="#E138BB" stroke-miterlimit="10"/>
  <mask id="path-3-outside-1_9633_2578" maskUnits="userSpaceOnUse" x="7.51266" y="-1.05288" width="10.6561" height="12.742" fill="black">
    <rect fill="white" x="7.51266" y="-1.05288" width="10.6561" height="12.742"/>
    <path d="M8.7809 1.91921C9.09665 1.73646 9.43667 1.5944 9.80495 1.49192C12.1467 0.840268 14.5773 2.2126 15.2289 4.55438C15.8806 6.89616 14.5083 9.32672 12.1665 9.97837C11.8022 10.0797 11.4337 10.1348 11.0729 10.1403"/>
  </mask>
  <path d="M9.28183 2.7847C9.52139 2.64604 9.78276 2.53609 10.073 2.45531L9.53686 0.528522C9.09058 0.65271 8.67191 0.826874 8.27997 1.05372L9.28183 2.7847ZM10.073 2.45531C11.8827 1.95172 13.762 3.01275 14.2655 4.82246L16.1923 4.28629C15.3926 1.41244 12.4107 -0.271186 9.53686 0.528522L10.073 2.45531ZM14.2655 4.82246C14.7691 6.63218 13.7081 8.51139 11.8984 9.01498L12.4346 10.9418C15.3084 10.1421 16.992 7.16014 16.1923 4.28629L14.2655 4.82246ZM11.8984 9.01498C11.6111 9.09491 11.3276 9.13635 11.0577 9.14047L11.0882 11.1402C11.5398 11.1333 11.9933 11.0646 12.4346 10.9418L11.8984 9.01498Z" fill="#E138BB" mask="url(#path-3-outside-1_9633_2578)"/>
</svg>