<svg width="27" height="18" viewBox="0 0 27 18" fill="none" xmlns="http://www.w3.org/2000/svg">
	<g id="Group 45977">
		<path id="Vector" d="M1.19971 3.92969H10.6283" stroke="white" stroke-width="1.8" stroke-linecap="round" stroke-linejoin="round"/>
		<path id="Vector_2" d="M15.7715 3.92969H25.2001" stroke="white" stroke-width="1.8" stroke-linecap="round" stroke-linejoin="round"/>
		<path id="Vector_3"
			  d="M13.1998 6.50223C14.62 6.50223 15.7713 5.35096 15.7713 3.9308C15.7713 2.51064 14.62 1.35938 13.1998 1.35938C11.7797 1.35938 10.6284 2.51064 10.6284 3.9308C10.6284 5.35096 11.7797 6.50223 13.1998 6.50223Z"
			  stroke="white" stroke-width="1.8" stroke-linecap="round" stroke-linejoin="round"/>
		<path id="Vector_4"
			  d="M3.77114 16.7874C5.1913 16.7874 6.34256 15.6361 6.34256 14.216C6.34256 12.7958 5.1913 11.6445 3.77114 11.6445C2.35097 11.6445 1.19971 12.7958 1.19971 14.216C1.19971 15.6361 2.35097 16.7874 3.77114 16.7874Z"
			  stroke="white" stroke-width="1.8" stroke-linecap="round" stroke-linejoin="round"/>
		<path id="Vector_5"
			  d="M22.6286 16.7874C24.0487 16.7874 25.2 15.6361 25.2 14.216C25.2 12.7958 24.0487 11.6445 22.6286 11.6445C21.2084 11.6445 20.0571 12.7958 20.0571 14.216C20.0571 15.6361 21.2084 16.7874 22.6286 16.7874Z"
			  stroke="white" stroke-width="1.8" stroke-linecap="round" stroke-linejoin="round"/>
		<path id="Vector_6"
			  d="M15.748 4.28125C17.4458 4.75903 18.9759 5.70282 20.1647 7.00567C21.3536 8.30853 22.1537 9.91834 22.4745 11.6527"
			  stroke="white" stroke-width="1.8" stroke-linecap="round" stroke-linejoin="round"/>
		<path id="Vector_7"
			  d="M3.92529 11.6527C4.24616 9.91839 5.04634 8.30864 6.23518 7.0058C7.42402 5.70297 8.95398 4.75914 10.6517 4.28125"
			  stroke="white" stroke-width="1.8" stroke-linecap="round" stroke-linejoin="round"/>
	</g>
</svg>
