<svg width="56" height="56" viewBox="0 0 56 56" fill="none"
	 xmlns="http://www.w3.org/2000/svg">
	<g id="Group 155">
		<circle id="Ellipse 22" cx="28" cy="28" r="28"
				fill="url(#paint0_linear_4906_29469)"/>
		<g id="Group 154">
			<g id="Group 153">
				<g id="Vector">
					<path d="M31.8398 20.7988H35.445V24.4039"
						  fill="url(#paint1_linear_4906_29469)"/>
					<path d="M31.8398 20.7988H35.445V24.4039" stroke="white"
						  stroke-width="1.5" stroke-linecap="round"
						  stroke-linejoin="round"/>
				</g>
				<g id="Vector_2">
					<path d="M24.6305 31.6149H21.0254V28.0098"
						  fill="url(#paint2_linear_4906_29469)"/>
					<path d="M24.6305 31.6149H21.0254V28.0098" stroke="white"
						  stroke-width="1.5" stroke-linecap="round"
						  stroke-linejoin="round"/>
				</g>
				<path id="Vector_3"
					  d="M38.1493 17.1943H18.3212C17.8234 17.1943 17.4199 17.5979 17.4199 18.0956V34.3186C17.4199 34.8164 17.8234 35.2199 18.3212 35.2199H38.1493C38.6471 35.2199 39.0506 34.8164 39.0506 34.3186V18.0956C39.0506 17.5979 38.6471 17.1943 38.1493 17.1943Z"
					  stroke="white" stroke-width="1.5" stroke-linecap="round"
					  stroke-linejoin="round"/>
			</g>
			<path id="Vector_4" d="M31.8411 38.9629H24.6309" stroke="white"
				  stroke-width="1.5" stroke-linecap="round"
				  stroke-linejoin="round"/>
		</g>
	</g>
	<defs>
		<linearGradient id="paint0_linear_4906_29469" x1="10.3939" y1="-33.4035"
						x2="64.3122" y2="17.6506"
						gradientUnits="userSpaceOnUse">
			<stop stop-color="#DE04A4"/>
			<stop offset="1" stop-color="#DE04A4"/>
		</linearGradient>
		<linearGradient id="paint1_linear_4906_29469" x1="32.509" y1="18.6484"
						x2="35.9801" y2="21.9351"
						gradientUnits="userSpaceOnUse">
			<stop stop-color="#DE04A4"/>
			<stop offset="1" stop-color="#DE04A4"/>
		</linearGradient>
		<linearGradient id="paint2_linear_4906_29469" x1="21.6945" y1="25.8593"
						x2="25.1656" y2="29.1461"
						gradientUnits="userSpaceOnUse">
			<stop stop-color="#DE04A4"/>
			<stop offset="1" stop-color="#DE04A4"/>
		</linearGradient>
	</defs>
</svg>
