<svg width="16" height="14" viewBox="1 0 13 10" fill="none" xmlns="http://www.w3.org/2000/svg">
  <g clip-path="url(#clip0_3797_71882)">
    <path d="M8.69658 2.79233L8.96445 1.74067C8.9912 1.63486 9.05684 1.54301 9.14829 1.48344C9.23973 1.42386 9.35027 1.40094 9.45786 1.41922L11.3887 1.73745C11.4721 1.75099 11.5497 1.78864 11.6119 1.84576C11.6742 1.90288 11.7184 1.97697 11.739 2.0589L13.3211 8.29335C13.3452 8.39135 13.334 8.49475 13.2895 8.58531C13.2449 8.67587 13.1697 8.74778 13.0773 8.78838L9.48787 10.3795C9.4334 10.4043 9.37443 10.4175 9.31462 10.4185C9.25481 10.4195 9.19544 10.4082 9.14018 10.3853C9.08493 10.3624 9.03497 10.3284 8.9934 10.2854C8.95184 10.2423 8.91955 10.1912 8.89855 10.1352L8.35156 8.65176" stroke="#BEBEBE" stroke-linecap="round" stroke-linejoin="round"/>
    <path d="M5.96998 2.79233L5.70211 1.74067C5.67535 1.63486 5.60971 1.54301 5.51827 1.48344C5.42682 1.42386 5.31629 1.40094 5.20869 1.41922L3.27789 1.73745C3.19449 1.75099 3.11687 1.78864 3.05461 1.84576C2.99235 1.90288 2.94817 1.97697 2.92751 2.0589L1.34547 8.29228C1.32131 8.39028 1.3325 8.49368 1.3771 8.58424C1.42169 8.67479 1.49682 8.74671 1.58924 8.7873L5.17869 10.3785C5.23316 10.4032 5.29212 10.4165 5.35193 10.4174C5.41174 10.4184 5.47111 10.4071 5.52637 10.3842C5.58163 10.3613 5.63159 10.3273 5.67315 10.2843C5.71472 10.2413 5.747 10.1902 5.768 10.1342L6.31499 8.65176" stroke="#BEBEBE" stroke-linecap="round" stroke-linejoin="round"/>
    <path d="M4.76172 3.04008C5.59963 2.81142 6.46473 2.69769 7.33327 2.70202C8.20181 2.69769 9.0669 2.81142 9.90482 3.04008" stroke="#BEBEBE" stroke-linecap="round" stroke-linejoin="round"/>
    <path d="M9.90482 8.36426C9.0669 8.59292 8.20181 8.70664 7.33327 8.70231C6.46473 8.70664 5.59963 8.59292 4.76172 8.36426" stroke="#BEBEBE" stroke-linecap="round" stroke-linejoin="round"/>
  </g>
  <defs>
    <clipPath id="clip0_3797_71882">
      <rect width="14" height="11" fill="white" transform="translate(0 0.5)"/>
    </clipPath>
  </defs>
</svg>