<svg width="31" height="24" viewBox="0 0 31 24" fill="none"
	 xmlns="http://www.w3.org/2000/svg">
	<path
		d="M30.2762 17.445L26.5875 2.89624C26.4904 2.51749 26.285 2.17527 25.9963 1.91151C25.7077 1.64775 25.3484 1.47389 24.9625 1.41124L20.455 0.671241C19.9581 0.591318 19.4492 0.699069 19.0273 0.973537C18.6054 1.24801 18.3007 1.66957 18.1725 2.15624L18.1462 2.26249C18.1292 2.32999 18.1265 2.4003 18.1382 2.46892C18.15 2.53753 18.1759 2.60293 18.2144 2.66094C18.2529 2.71895 18.3031 2.76829 18.3617 2.80579C18.4203 2.8433 18.4862 2.86814 18.555 2.87874C19.5893 3.03054 20.6097 3.26547 21.6062 3.58124C21.8554 3.65641 22.0666 3.82353 22.197 4.04869C22.3275 4.27386 22.3674 4.54022 22.3087 4.79374C22.275 4.92585 22.2146 5.04967 22.1312 5.15759C22.0479 5.2655 21.9434 5.35523 21.8241 5.42126C21.7048 5.48729 21.5732 5.52823 21.4375 5.54155C21.3018 5.55487 21.1648 5.54031 21.035 5.49874C17.3372 4.36472 13.3852 4.36037 9.68497 5.48624C9.43455 5.57044 9.16133 5.55495 8.92204 5.44298C8.68275 5.33102 8.49579 5.13119 8.39997 4.88499C8.35442 4.75866 8.33479 4.62445 8.34224 4.49036C8.3497 4.35628 8.38408 4.22507 8.44334 4.10456C8.5026 3.98405 8.58553 3.87671 8.68718 3.78895C8.78882 3.70119 8.9071 3.6348 9.03497 3.59374C10.044 3.27235 11.0773 3.03324 12.125 2.87874C12.1938 2.86814 12.2596 2.8433 12.3182 2.80579C12.3769 2.76829 12.427 2.71895 12.4655 2.66094C12.504 2.60293 12.5299 2.53753 12.5417 2.46892C12.5534 2.4003 12.5507 2.32999 12.5337 2.26249L12.5075 2.15624C12.3792 1.66915 12.074 1.24732 11.6516 0.973003C11.2291 0.698685 10.7196 0.59155 10.2225 0.67249L5.71246 1.41249C5.32668 1.47505 4.9675 1.64872 4.67889 1.91224C4.39028 2.17577 4.18475 2.51772 4.08746 2.89624L0.398715 17.445C0.283055 17.9023 0.333392 18.3858 0.540769 18.8095C0.748146 19.2332 1.09911 19.5695 1.53121 19.7587L9.90622 23.4725C10.158 23.5844 10.4301 23.6437 10.7057 23.6467C10.9812 23.6496 11.2545 23.5962 11.5087 23.4896C11.7628 23.3831 11.9925 23.2257 12.1836 23.0272C12.3748 22.8286 12.5232 22.593 12.62 22.335L13.0562 21.1537C13.0822 21.083 13.0919 21.0073 13.0845 20.9323C13.0771 20.8572 13.0528 20.7849 13.0135 20.7206C12.9742 20.6562 12.9209 20.6016 12.8575 20.5608C12.7941 20.5201 12.7223 20.4941 12.6475 20.485C11.4331 20.3379 10.2351 20.0785 9.06872 19.71C8.82061 19.6346 8.6103 19.4679 8.48017 19.2436C8.35005 19.0193 8.30977 18.7541 8.36747 18.5012C8.4009 18.3688 8.46114 18.2445 8.54445 18.1362C8.62776 18.0279 8.73238 17.9379 8.85185 17.8716C8.97133 17.8053 9.10312 17.7642 9.2391 17.7508C9.37508 17.7374 9.51236 17.752 9.64247 17.7937C13.3541 18.9304 17.3209 18.9304 21.0325 17.7937C21.1624 17.7522 21.2995 17.7377 21.4353 17.7511C21.571 17.7645 21.7026 17.8055 21.8219 17.8717C21.9412 17.9378 22.0458 18.0277 22.129 18.1358C22.2123 18.2438 22.2726 18.3678 22.3062 18.5C22.3646 18.753 22.3246 19.0187 22.1944 19.2434C22.0642 19.468 21.8535 19.6348 21.605 19.71C20.4391 20.0786 19.2414 20.3381 18.0275 20.485C17.9526 20.4941 17.8808 20.5201 17.8175 20.5608C17.7541 20.6016 17.7007 20.6562 17.6614 20.7206C17.6221 20.7849 17.5978 20.8572 17.5905 20.9323C17.5831 21.0073 17.5927 21.083 17.6187 21.1537L18.055 22.335C18.1518 22.5929 18.3004 22.8284 18.4915 23.0268C18.6827 23.2253 18.9124 23.3826 19.1665 23.4891C19.4206 23.5956 19.6938 23.6491 19.9693 23.6462C20.2448 23.6434 20.5169 23.5843 20.7687 23.4725L29.1437 19.7587C29.5758 19.5695 29.9268 19.2332 30.1342 18.8095C30.3415 18.3858 30.3919 17.9023 30.2762 17.445ZM10.8375 14.6462C10.5408 14.6462 10.2508 14.5583 10.0041 14.3934C9.75744 14.2286 9.56518 13.9944 9.45165 13.7203C9.33811 13.4462 9.30841 13.1446 9.36629 12.8536C9.42416 12.5626 9.56703 12.2954 9.7768 12.0856C9.98658 11.8758 10.2539 11.7329 10.5448 11.6751C10.8358 11.6172 11.1374 11.6469 11.4115 11.7604C11.6856 11.874 11.9198 12.0662 12.0847 12.3129C12.2495 12.5596 12.3375 12.8496 12.3375 13.1462C12.3375 13.5441 12.1794 13.9256 11.8981 14.2069C11.6168 14.4882 11.2353 14.6462 10.8375 14.6462ZM19.8375 14.6462C19.5408 14.6462 19.2508 14.5583 19.0041 14.3934C18.7574 14.2286 18.5652 13.9944 18.4516 13.7203C18.3381 13.4462 18.3084 13.1446 18.3663 12.8536C18.4242 12.5626 18.567 12.2954 18.7768 12.0856C18.9866 11.8758 19.2539 11.7329 19.5448 11.6751C19.8358 11.6172 20.1374 11.6469 20.4115 11.7604C20.6856 11.874 20.9198 12.0662 21.0847 12.3129C21.2495 12.5596 21.3375 12.8496 21.3375 13.1462C21.3375 13.5441 21.1794 13.9256 20.8981 14.2069C20.6168 14.4882 20.2353 14.6462 19.8375 14.6462Z"
		fill="white"/>
</svg>
