<svg width="33" height="32" viewBox="0 0 33 32" fill="none"
	 xmlns="http://www.w3.org/2000/svg">
	<g id="DiscordLogo" clip-path="url(#clip0_4917_29512)">
		<path id="Vector"
			  d="M31.7762 21.7985L28.0875 7.24976C27.9904 6.871 27.785 6.52879 27.4963 6.26502C27.2077 6.00126 26.8484 5.82741 26.4625 5.76476L21.955 5.02476C21.4581 4.94483 20.9492 5.05258 20.5273 5.32705C20.1054 5.60152 19.8007 6.02308 19.6725 6.50976L19.6462 6.61601C19.6292 6.68351 19.6265 6.75382 19.6382 6.82243C19.65 6.89104 19.6759 6.95645 19.7144 7.01446C19.7529 7.07247 19.8031 7.1218 19.8617 7.15931C19.9203 7.19681 19.9862 7.22166 20.055 7.23226C21.0893 7.38405 22.1097 7.61898 23.1062 7.93476C23.3554 8.00993 23.5666 8.17704 23.697 8.40221C23.8275 8.62738 23.8674 8.89373 23.8087 9.14726C23.775 9.27937 23.7146 9.40319 23.6312 9.5111C23.5479 9.61902 23.4434 9.70875 23.3241 9.77478C23.2048 9.84081 23.0732 9.88174 22.9375 9.89507C22.8018 9.90839 22.6648 9.89382 22.535 9.85226C18.8372 8.71824 14.8852 8.71388 11.185 9.83976C10.9346 9.92395 10.6613 9.90846 10.422 9.7965C10.1828 9.68454 9.99579 9.4847 9.89997 9.23851C9.85442 9.11217 9.83479 8.97796 9.84224 8.84388C9.8497 8.70979 9.88408 8.57858 9.94334 8.45807C10.0026 8.33757 10.0855 8.23023 10.1872 8.14247C10.2888 8.0547 10.4071 7.98831 10.535 7.94726C11.544 7.62587 12.5773 7.38675 13.625 7.23226C13.6938 7.22166 13.7596 7.19681 13.8182 7.15931C13.8769 7.1218 13.927 7.07247 13.9655 7.01446C14.004 6.95645 14.0299 6.89104 14.0417 6.82243C14.0534 6.75382 14.0507 6.68351 14.0337 6.61601L14.0075 6.50976C13.8792 6.02267 13.574 5.60084 13.1516 5.32652C12.7291 5.0522 12.2196 4.94507 11.7225 5.02601L7.21246 5.76601C6.82668 5.82856 6.4675 6.00223 6.17889 6.26576C5.89028 6.52928 5.68475 6.87123 5.58746 7.24976L1.89871 21.7985C1.78306 22.2558 1.83339 22.7393 2.04077 23.163C2.24815 23.5867 2.59911 23.9231 3.03121 24.1123L11.4062 27.826C11.658 27.938 11.9301 27.9972 12.2057 28.0002C12.4812 28.0031 12.7545 27.9497 13.0087 27.8432C13.2628 27.7366 13.4925 27.5792 13.6836 27.3807C13.8748 27.1821 14.0232 26.9466 14.12 26.6885L14.5562 25.5073C14.5822 25.4365 14.5919 25.3608 14.5845 25.2858C14.5771 25.2108 14.5528 25.1384 14.5135 25.0741C14.4742 25.0098 14.4209 24.9552 14.3575 24.9144C14.2941 24.8736 14.2223 24.8476 14.1475 24.8385C12.9331 24.6915 11.7351 24.432 10.5687 24.0635C10.3206 23.9881 10.1103 23.8215 9.98017 23.5972C9.85005 23.3729 9.80977 23.1076 9.86747 22.8548C9.9009 22.7223 9.96114 22.5981 10.0444 22.4898C10.1278 22.3815 10.2324 22.2914 10.3519 22.2251C10.4713 22.1588 10.6031 22.1177 10.7391 22.1043C10.8751 22.0909 11.0124 22.1055 11.1425 22.1473C14.8541 23.2839 18.8209 23.2839 22.5325 22.1473C22.6624 22.1057 22.7995 22.0912 22.9353 22.1046C23.071 22.118 23.2026 22.159 23.3219 22.2252C23.4412 22.2913 23.5458 22.3812 23.629 22.4893C23.7123 22.5973 23.7726 22.7213 23.8062 22.8535C23.8646 23.1065 23.8246 23.3723 23.6944 23.5969C23.5642 23.8216 23.3535 23.9883 23.105 24.0635C21.9391 24.4321 20.7414 24.6916 19.5275 24.8385C19.4526 24.8476 19.3808 24.8736 19.3175 24.9144C19.2541 24.9552 19.2007 25.0098 19.1614 25.0741C19.1221 25.1384 19.0978 25.2108 19.0905 25.2858C19.0831 25.3608 19.0927 25.4365 19.1187 25.5073L19.555 26.6885C19.6518 26.9464 19.8004 27.1819 19.9915 27.3803C20.1827 27.5788 20.4124 27.7361 20.6665 27.8426C20.9206 27.9492 21.1938 28.0026 21.4693 27.9998C21.7448 27.9969 22.0169 27.9378 22.2687 27.826L30.6437 24.1123C31.0758 23.9231 31.4268 23.5867 31.6342 23.163C31.8415 22.7393 31.8919 22.2558 31.7762 21.7985ZM12.3375 18.9998C12.0408 18.9998 11.7508 18.9118 11.5041 18.747C11.2574 18.5821 11.0652 18.3479 10.9516 18.0738C10.8381 17.7997 10.8084 17.4981 10.8663 17.2071C10.9242 16.9161 11.067 16.6489 11.2768 16.4391C11.4866 16.2293 11.7539 16.0865 12.0448 16.0286C12.3358 15.9707 12.6374 16.0004 12.9115 16.1139C13.1856 16.2275 13.4198 16.4197 13.5847 16.6664C13.7495 16.9131 13.8375 17.2031 13.8375 17.4998C13.8375 17.8976 13.6794 18.2791 13.3981 18.5604C13.1168 18.8417 12.7353 18.9998 12.3375 18.9998ZM21.3375 18.9998C21.0408 18.9998 20.7508 18.9118 20.5041 18.747C20.2574 18.5821 20.0652 18.3479 19.9516 18.0738C19.8381 17.7997 19.8084 17.4981 19.8663 17.2071C19.9242 16.9161 20.067 16.6489 20.2768 16.4391C20.4866 16.2293 20.7539 16.0865 21.0448 16.0286C21.3358 15.9707 21.6374 16.0004 21.9115 16.1139C22.1856 16.2275 22.4198 16.4197 22.5847 16.6664C22.7495 16.9131 22.8375 17.2031 22.8375 17.4998C22.8375 17.8976 22.6794 18.2791 22.3981 18.5604C22.1168 18.8417 21.7353 18.9998 21.3375 18.9998Z"
			  fill="white"/>
	</g>
	<defs>
		<clipPath id="clip0_4917_29512">
			<rect width="32" height="32" fill="white"
				  transform="translate(0.837891)"/>
		</clipPath>
	</defs>
</svg>
