<svg width="33" height="32" viewBox="0 0 33 32" fill="none"
	 xmlns="http://www.w3.org/2000/svg">
	<g clip-path="url(#clip0_4195_5539)">
		<path
			d="M31.4388 21.7985L27.7501 7.24976C27.653 6.871 27.4476 6.52879 27.1589 6.26502C26.8703 6.00126 26.511 5.82741 26.1251 5.76476L21.6176 5.02476C21.1207 4.94483 20.6118 5.05258 20.1899 5.32705C19.768 5.60152 19.4633 6.02308 19.3351 6.50976L19.3088 6.61601C19.2918 6.68351 19.2891 6.75382 19.3008 6.82243C19.3126 6.89104 19.3385 6.95645 19.377 7.01446C19.4155 7.07247 19.4656 7.1218 19.5243 7.15931C19.5829 7.19681 19.6488 7.22166 19.7176 7.23226C20.7519 7.38405 21.7723 7.61898 22.7688 7.93476C23.0179 8.00993 23.2292 8.17704 23.3596 8.40221C23.4901 8.62738 23.53 8.89373 23.4713 9.14726C23.4376 9.27937 23.3772 9.40319 23.2938 9.5111C23.2105 9.61902 23.106 9.70875 22.9867 9.77478C22.8674 9.84081 22.7358 9.88174 22.6001 9.89507C22.4644 9.90839 22.3274 9.89382 22.1976 9.85226C18.4998 8.71824 14.5478 8.71388 10.8476 9.83976C10.5972 9.92395 10.3239 9.90846 10.0846 9.7965C9.84535 9.68454 9.65838 9.4847 9.56256 9.23851C9.51702 9.11217 9.49739 8.97796 9.50484 8.84388C9.51229 8.70979 9.54668 8.57858 9.60594 8.45807C9.6652 8.33757 9.74813 8.23023 9.84978 8.14247C9.95142 8.0547 10.0697 7.98831 10.1976 7.94726C11.2066 7.62587 12.2399 7.38675 13.2876 7.23226C13.3564 7.22166 13.4222 7.19681 13.4808 7.15931C13.5395 7.1218 13.5896 7.07247 13.6281 7.01446C13.6666 6.95645 13.6925 6.89104 13.7043 6.82243C13.716 6.75382 13.7133 6.68351 13.6963 6.61601L13.6701 6.50976C13.5417 6.02267 13.2366 5.60084 12.8142 5.32652C12.3917 5.0522 11.8822 4.94507 11.3851 5.02601L6.87506 5.76601C6.48928 5.82856 6.1301 6.00223 5.84149 6.26576C5.55287 6.52928 5.34735 6.87123 5.25006 7.24976L1.56131 21.7985C1.44565 22.2558 1.49599 22.7393 1.70337 23.163C1.91074 23.5867 2.26171 23.9231 2.69381 24.1123L11.0688 27.826C11.3206 27.938 11.5927 27.9972 11.8683 28.0002C12.1438 28.0031 12.4171 27.9497 12.6713 27.8432C12.9254 27.7366 13.1551 27.5792 13.3462 27.3807C13.5373 27.1821 13.6858 26.9466 13.7826 26.6885L14.2188 25.5073C14.2448 25.4365 14.2545 25.3608 14.2471 25.2858C14.2397 25.2108 14.2154 25.1384 14.1761 25.0741C14.1368 25.0098 14.0835 24.9552 14.0201 24.9144C13.9567 24.8736 13.8849 24.8476 13.8101 24.8385C12.5957 24.6915 11.3977 24.432 10.2313 24.0635C9.9832 23.9881 9.7729 23.8215 9.64277 23.5972C9.51264 23.3729 9.47237 23.1076 9.53006 22.8548C9.5635 22.7223 9.62373 22.5981 9.70704 22.4898C9.79035 22.3815 9.89498 22.2914 10.0145 22.2251C10.1339 22.1588 10.2657 22.1177 10.4017 22.1043C10.5377 22.0909 10.675 22.1055 10.8051 22.1473C14.5167 23.2839 18.4835 23.2839 22.1951 22.1473C22.325 22.1057 22.4621 22.0912 22.5979 22.1046C22.7336 22.118 22.8652 22.159 22.9845 22.2252C23.1038 22.2913 23.2083 22.3812 23.2916 22.4893C23.3749 22.5973 23.4352 22.7213 23.4688 22.8535C23.5272 23.1065 23.4872 23.3723 23.357 23.5969C23.2268 23.8216 23.0161 23.9883 22.7676 24.0635C21.6017 24.4321 20.404 24.6916 19.1901 24.8385C19.1152 24.8476 19.0434 24.8736 18.9801 24.9144C18.9167 24.9552 18.8633 25.0098 18.824 25.0741C18.7847 25.1384 18.7604 25.2108 18.7531 25.2858C18.7457 25.3608 18.7553 25.4365 18.7813 25.5073L19.2176 26.6885C19.3144 26.9464 19.463 27.1819 19.6541 27.3803C19.8453 27.5788 20.075 27.7361 20.3291 27.8426C20.5832 27.9492 20.8564 28.0026 21.1319 27.9998C21.4074 27.9969 21.6795 27.9378 21.9313 27.826L30.3063 24.1123C30.7384 23.9231 31.0894 23.5867 31.2968 23.163C31.5041 22.7393 31.5545 22.2558 31.4388 21.7985ZM12.0001 18.9998C11.7034 18.9998 11.4134 18.9118 11.1667 18.747C10.92 18.5821 10.7278 18.3479 10.6142 18.0738C10.5007 17.7997 10.471 17.4981 10.5289 17.2071C10.5868 16.9161 10.7296 16.6489 10.9394 16.4391C11.1492 16.2293 11.4165 16.0865 11.7074 16.0286C11.9984 15.9707 12.3 16.0004 12.5741 16.1139C12.8482 16.2275 13.0824 16.4197 13.2473 16.6664C13.4121 16.9131 13.5001 17.2031 13.5001 17.4998C13.5001 17.8976 13.342 18.2791 13.0607 18.5604C12.7794 18.8417 12.3979 18.9998 12.0001 18.9998ZM21.0001 18.9998C20.7034 18.9998 20.4134 18.9118 20.1667 18.747C19.92 18.5821 19.7278 18.3479 19.6142 18.0738C19.5007 17.7997 19.471 17.4981 19.5289 17.2071C19.5868 16.9161 19.7296 16.6489 19.9394 16.4391C20.1492 16.2293 20.4165 16.0865 20.7074 16.0286C20.9984 15.9707 21.3 16.0004 21.5741 16.1139C21.8482 16.2275 22.0824 16.4197 22.2473 16.6664C22.4121 16.9131 22.5001 17.2031 22.5001 17.4998C22.5001 17.8976 22.342 18.2791 22.0607 18.5604C21.7794 18.8417 21.3979 18.9998 21.0001 18.9998Z"
			fill="#7282FF"/>
	</g>
	<defs>
		<clipPath id="clip0_4195_5539">
			<rect width="32" height="32" fill="white"
				  transform="translate(0.5)"/>
		</clipPath>
	</defs>
</svg>
