<svg width="28" height="27" viewBox="0 0 28 27" fill="none"
	 xmlns="http://www.w3.org/2000/svg">
	<path
		d="M10.25 15.835C10.9404 15.835 11.5 15.2753 11.5 14.585C11.5 13.8946 10.9404 13.335 10.25 13.335C9.55964 13.335 9 13.8946 9 14.585C9 15.2753 9.55964 15.835 10.25 15.835Z"
		stroke="white" stroke-width="1.5" stroke-linecap="round"
		stroke-linejoin="round"/>
	<path
		d="M17.75 15.835C18.4404 15.835 19 15.2753 19 14.585C19 13.8946 18.4404 13.335 17.75 13.335C17.0596 13.335 16.5 13.8946 16.5 14.585C16.5 15.2753 17.0596 15.835 17.75 15.835Z"
		stroke="white" stroke-width="1.5" stroke-linecap="round"
		stroke-linejoin="round"/>
	<path
		d="M16.6503 7.67879L17.1712 5.634C17.2232 5.42827 17.3508 5.24969 17.5286 5.13386C17.7064 5.01803 17.9213 4.97345 18.1305 5.009L21.8847 5.62775C22.0469 5.65407 22.1978 5.72728 22.3188 5.83834C22.4399 5.9494 22.5258 6.09345 22.5659 6.25275L25.642 18.3746C25.689 18.5652 25.6672 18.7662 25.5805 18.9423C25.4938 19.1184 25.3477 19.2582 25.168 19.3371L18.1889 22.4309C18.083 22.4789 17.9683 22.5047 17.852 22.5067C17.7357 22.5086 17.6203 22.4866 17.5129 22.4421C17.4054 22.3975 17.3083 22.3314 17.2275 22.2478C17.1466 22.1641 17.0839 22.0648 17.043 21.9559L15.9795 19.0715"
		stroke="white" stroke-width="1.5" stroke-linecap="round"
		stroke-linejoin="round"/>
	<path
		d="M11.3499 7.67879L10.8291 5.634C10.777 5.42827 10.6494 5.24969 10.4716 5.13386C10.2938 5.01803 10.0789 4.97345 9.86968 5.009L6.11552 5.62775C5.95336 5.65407 5.80245 5.72728 5.68139 5.83834C5.56034 5.9494 5.47443 6.09345 5.43427 6.25275L2.35822 18.3725C2.31123 18.5631 2.33301 18.7641 2.41971 18.9402C2.50642 19.1163 2.65249 19.2561 2.83218 19.335L9.81135 22.4288C9.91725 22.4769 10.0319 22.5027 10.1482 22.5046C10.2645 22.5065 10.3799 22.4845 10.4874 22.44C10.5948 22.3955 10.6919 22.3293 10.7728 22.2457C10.8536 22.162 10.9164 22.0627 10.9572 21.9538L12.0207 19.0715"
		stroke="white" stroke-width="1.5" stroke-linecap="round"
		stroke-linejoin="round"/>
	<path
		d="M9 8.16045C10.6292 7.71586 12.3113 7.49474 14 7.50316C15.6887 7.49474 17.3708 7.71586 19 8.16045"
		stroke="white" stroke-width="1.5" stroke-linecap="round"
		stroke-linejoin="round"/>
	<path
		d="M19 18.5127C17.3708 18.9573 15.6887 19.1784 14 19.17C12.3113 19.1784 10.6292 18.9573 9 18.5127"
		stroke="white" stroke-width="1.5" stroke-linecap="round"
		stroke-linejoin="round"/>
</svg>