<svg width="28" height="28" viewBox="0 0 28 28" fill="none"
	 xmlns="http://www.w3.org/2000/svg">
	<g id="DiscordLogo">
		<path id="Vector"
			  d="M26.4486 18.8345L23.3746 6.71057C23.2938 6.39494 23.1226 6.10976 22.882 5.88996C22.6415 5.67016 22.3421 5.52528 22.0205 5.47307L18.2642 4.8564C17.8501 4.7898 17.4261 4.8796 17.0745 5.10832C16.723 5.33704 16.469 5.68835 16.3621 6.09391L16.3403 6.18245C16.3261 6.2387 16.3238 6.29729 16.3336 6.35447C16.3434 6.41164 16.365 6.46615 16.3971 6.51449C16.4292 6.56283 16.471 6.60394 16.5198 6.6352C16.5687 6.66645 16.6236 6.68716 16.6809 6.69599C17.5428 6.82249 18.3931 7.01826 19.2236 7.2814C19.4312 7.34405 19.6072 7.48331 19.7159 7.67095C19.8247 7.85859 19.8579 8.08055 19.809 8.29182C19.7809 8.40192 19.7306 8.5051 19.6611 8.59503C19.5917 8.68496 19.5046 8.75973 19.4051 8.81476C19.3057 8.86978 19.1961 8.90389 19.083 8.915C18.9699 8.9261 18.8558 8.91396 18.7476 8.87932C15.6661 7.9343 12.3727 7.93068 9.28923 8.8689C9.08055 8.93907 8.85287 8.92616 8.65346 8.83286C8.45405 8.73955 8.29825 8.57303 8.2184 8.36786C8.18044 8.26259 8.16408 8.15074 8.17029 8.03901C8.17651 7.92727 8.20516 7.81793 8.25454 7.7175C8.30393 7.61708 8.37303 7.52763 8.45774 7.4545C8.54244 7.38136 8.64101 7.32604 8.74756 7.29182C9.5884 7.024 10.4495 6.82473 11.3226 6.69599C11.3799 6.68716 11.4348 6.66645 11.4836 6.6352C11.5325 6.60394 11.5743 6.56283 11.6064 6.51449C11.6384 6.46615 11.66 6.41164 11.6698 6.35447C11.6796 6.29729 11.6774 6.2387 11.6632 6.18245L11.6413 6.09391C11.5344 5.688 11.2801 5.33647 10.9281 5.10787C10.576 4.87928 10.1514 4.79 9.73715 4.85745L5.97881 5.47411C5.65732 5.52624 5.35801 5.67097 5.1175 5.89057C4.87699 6.11018 4.70572 6.39514 4.62465 6.71057L1.55069 18.8345C1.4543 19.2156 1.49625 19.6185 1.66907 19.9716C1.84188 20.3247 2.13435 20.605 2.49444 20.7627L9.4736 23.8574C9.68346 23.9507 9.91018 24.0001 10.1398 24.0026C10.3695 24.0051 10.5972 23.9605 10.809 23.8717C11.0208 23.783 11.2122 23.6518 11.3715 23.4863C11.5307 23.3209 11.6545 23.1246 11.7351 22.9095L12.0986 21.9252C12.1203 21.8662 12.1283 21.8031 12.1222 21.7406C12.116 21.6781 12.0958 21.6178 12.063 21.5642C12.0303 21.5106 11.9858 21.4651 11.933 21.4311C11.8802 21.3971 11.8203 21.3755 11.758 21.3679C10.746 21.2453 9.74766 21.0291 8.77569 20.722C8.56893 20.6592 8.39368 20.5203 8.28524 20.3334C8.1768 20.1465 8.14324 19.9254 8.19131 19.7147C8.21918 19.6043 8.26937 19.5008 8.3388 19.4106C8.40822 19.3203 8.49541 19.2453 8.59497 19.19C8.69453 19.1348 8.80436 19.1005 8.91767 19.0893C9.03099 19.0782 9.14539 19.0904 9.25381 19.1252C12.3468 20.0724 15.6525 20.0724 18.7455 19.1252C18.8538 19.0905 18.968 19.0784 19.0811 19.0896C19.1943 19.1008 19.3039 19.135 19.4034 19.1901C19.5028 19.2452 19.5899 19.3201 19.6593 19.4102C19.7287 19.5002 19.7789 19.6035 19.8069 19.7137C19.8556 19.9245 19.8223 20.146 19.7138 20.3332C19.6053 20.5204 19.4297 20.6594 19.2226 20.722C18.251 21.0292 17.2529 21.2454 16.2413 21.3679C16.179 21.3755 16.1191 21.3971 16.0663 21.4311C16.0135 21.4651 15.969 21.5106 15.9363 21.5642C15.9035 21.6178 15.8833 21.6781 15.8771 21.7406C15.871 21.8031 15.879 21.8662 15.9007 21.9252L16.2642 22.9095C16.345 23.1245 16.4688 23.3207 16.628 23.4861C16.7873 23.6514 16.9787 23.7825 17.1905 23.8713C17.4022 23.9601 17.6299 24.0046 17.8595 24.0022C18.0891 23.9999 18.3158 23.9506 18.5257 23.8574L25.5049 20.7627C25.8649 20.605 26.1574 20.3247 26.3302 19.9716C26.503 19.6185 26.545 19.2156 26.4486 18.8345ZM10.2496 16.5022C10.0024 16.5022 9.76074 16.4289 9.55518 16.2916C9.34962 16.1542 9.18941 15.959 9.0948 15.7306C9.00019 15.5022 8.97543 15.2509 9.02366 15.0084C9.0719 14.7659 9.19095 14.5432 9.36576 14.3684C9.54058 14.1935 9.76331 14.0745 10.0058 14.0263C10.2483 13.978 10.4996 14.0028 10.728 14.0974C10.9564 14.192 11.1516 14.3522 11.289 14.5578C11.4263 14.7633 11.4996 15.005 11.4996 15.2522C11.4996 15.5838 11.368 15.9017 11.1335 16.1361C10.8991 16.3705 10.5812 16.5022 10.2496 16.5022ZM17.7496 16.5022C17.5024 16.5022 17.2607 16.4289 17.0552 16.2916C16.8496 16.1542 16.6894 15.959 16.5948 15.7306C16.5002 15.5022 16.4754 15.2509 16.5237 15.0084C16.5719 14.7659 16.6909 14.5432 16.8658 14.3684C17.0406 14.1935 17.2633 14.0745 17.5058 14.0263C17.7483 13.978 17.9996 14.0028 18.228 14.0974C18.4564 14.192 18.6516 14.3522 18.789 14.5578C18.9263 14.7633 18.9996 15.005 18.9996 15.2522C18.9996 15.5838 18.8679 15.9017 18.6335 16.1361C18.3991 16.3705 18.0812 16.5022 17.7496 16.5022Z"
			  fill="#DE04A4"/>
	</g>
</svg>
