<svg width="18" height="19" viewBox="0 0 18 19" fill="none" xmlns="http://www.w3.org/2000/svg">
	<path
		d="M6.83623 15.7032H3.78125C3.63621 15.7032 3.49711 15.6456 3.39455 15.543C3.29199 15.4405 3.23438 15.3014 3.23438 15.1563V12.1014C3.23444 11.9565 3.29197 11.8176 3.39434 11.7151L11.8244 3.28505C11.927 3.18257 12.066 3.125 12.211 3.125C12.356 3.125 12.495 3.18257 12.5976 3.28505L15.6525 6.33798C15.755 6.44053 15.8126 6.57957 15.8126 6.72455C15.8126 6.86953 15.755 7.00857 15.6525 7.11112L7.22246 15.5433C7.11998 15.6456 6.98108 15.7031 6.83623 15.7032Z"
		stroke="white" stroke-width="1.4" stroke-linecap="round" stroke-linejoin="round"/>
	<path d="M9.79688 5.3125L13.625 9.14062" stroke="white" stroke-width="1.4" stroke-linecap="round" stroke-linejoin="round"/>
</svg>