<svg width="10" height="10" viewBox="-90 0 300 100" fill="none"
	 xmlns="http://www.w3.org/2000/svg">
	<g id="icn-hat-wizard">
		<path id="Vector"
			  d="M101.857 48.4253H17.1427C15.2173 48.4253 13.6564 49.9863 13.6564 51.9117C13.6564 53.837 15.2173 55.398 17.1427 55.398H22.4205H27.4267V65.1148H91.5728V55.398H96.5806H101.857C103.782 55.398 105.343 53.837 105.343 51.9117C105.343 49.9863 103.783 48.4253 101.857 48.4253Z"
			  fill="#FF8BE0" fill-opacity="0.3"/>
		<path id="Vector_2"
			  d="M27.4269 115.514C27.4269 117.439 28.9878 119 30.9132 119H88.0867C90.0121 119 91.573 117.439 91.573 115.514V72.0875H27.4269V115.514Z"
			  fill="#FF8BE0" fill-opacity="0.3"/>
		<path id="Vector_3"
			  d="M56.9982 27.5741L49.0719 35.5003C47.7104 36.8619 47.7104 39.0692 49.0719 40.4307C49.7527 41.1115 50.645 41.452 51.5372 41.452C52.4295 41.452 53.3218 41.1117 54.0023 40.4307L61.9286 32.5044L56.9982 27.5741Z"
			  fill="#FF8BE0" fill-opacity="0.3"/>
		<path id="Vector_4"
			  d="M88.4814 1.02127C87.1201 -0.34026 84.9126 -0.34026 83.551 1.02127L61.9286 22.6437L66.8589 27.5741L88.4814 5.9514C89.8431 4.59011 89.8431 2.38279 88.4814 1.02127Z"
			  fill="#FF8BE0" fill-opacity="0.3"/>
		<path id="Vector_5"
			  d="M37.5915 41.452H30.0057C28.0804 41.452 26.5194 39.8911 26.5194 37.9657C26.5194 36.0403 28.0804 34.4793 30.0057 34.4793H37.5915C39.5169 34.4793 41.0779 36.0403 41.0779 37.9657C41.0779 39.8911 39.5171 41.452 37.5915 41.452Z"
			  fill="#FF8BE0" fill-opacity="0.3"/>
		<path id="Vector_6"
			  d="M75.3924 41.452H70.1309C68.2055 41.452 66.6445 39.8911 66.6445 37.9657C66.6445 36.0403 68.2055 34.4793 70.1309 34.4793H75.3924C77.3178 34.4793 78.8788 36.0403 78.8788 37.9657C78.8788 39.8911 77.3178 41.452 75.3924 41.452Z"
			  fill="#FF8BE0" fill-opacity="0.3"/>
		<path id="Vector_7"
			  d="M41.6761 31.591C40.7838 31.591 39.8918 31.2507 39.2108 30.57L33.847 25.2059C32.4854 23.8444 32.4854 21.6371 33.847 20.2756C35.2085 18.9143 37.4158 18.9143 38.7773 20.2758L44.1411 25.6398C45.5024 27.0014 45.5024 29.2087 44.1411 30.5702C43.4606 31.2505 42.5681 31.591 41.6761 31.591Z"
			  fill="#FF8BE0" fill-opacity="0.3"/>
		<path id="Vector_8"
			  d="M51.537 22.8577C49.6116 22.8577 48.0507 21.2968 48.0507 19.3714V14.1101C48.0507 12.1847 49.6116 10.6237 51.537 10.6237C53.4624 10.6237 55.0233 12.1847 55.0233 14.1101V19.3716C55.0233 21.297 53.4624 22.8577 51.537 22.8577Z"
			  fill="#FF8BE0" fill-opacity="0.3"/>
	</g>
</svg>
