<svg width="20" height="20" viewBox="0 0 20 20" fill="none" xmlns="http://www.w3.org/2000/svg">
<g id="Group 4598059">
<path id="Vector" d="M9.44247 4.13037C9.10471 7.80288 6.19887 10.7087 2.52637 11.0465C6.19887 11.3842 9.10471 14.2954 9.44247 17.9679C9.78024 14.2954 12.6861 11.3896 16.3586 11.0465C12.6861 10.7087 9.78024 7.80288 9.44247 4.13037Z" fill="white"/>
<g id="Group 4598058">
<path id="Vector_2" d="M16.3587 0.878906C16.2075 2.52218 14.9073 3.8224 13.264 3.97353C14.9073 4.12466 16.2075 5.42729 16.3587 7.07055C16.5098 5.42729 17.81 4.12706 19.4533 3.97353C17.81 3.8224 16.5098 2.52218 16.3587 0.878906Z" fill="white"/>
<path id="Vector_3" d="M2.5264 16.3882C2.4493 17.2265 1.78597 17.8899 0.947632 17.967C1.78597 18.0441 2.4493 18.7086 2.5264 19.547C2.60351 18.7086 3.26684 18.0453 4.10518 17.967C3.26684 17.8899 2.60351 17.2265 2.5264 16.3882Z" fill="white"/>
</g>
</g>
</svg>
