<svg xmlns="http://www.w3.org/2000/svg" width="25" height="24" viewBox="0 0 24 24" fill="none">
    <!-- <rect x="0.5" width="20" height="20" rx="6" fill="none"/> -->
    <path d="M11.9226 7.36719C11.6654 10.1644 9.45205 12.3778 6.65479 12.635C9.45205 12.8923 11.6654 15.1097 11.9226 17.9069C12.1799 15.1097 14.3932 12.8964 17.1905 12.635C14.3932 12.3778 12.1799 10.1644 11.9226 7.36719Z" fill="none"/>
    <path d="M17.1901 4.89062C17.075 6.14227 16.0846 7.13261 14.833 7.24773C16.0846 7.36284 17.075 8.35502 17.1901 9.60666C17.3052 8.35502 18.2956 7.36467 19.5472 7.24773C18.2956 7.13261 17.3052 6.14227 17.1901 4.89062Z" fill="none"/>
    <path d="M6.65466 16.7041C6.59594 17.3426 6.09069 17.8479 5.45215 17.9066C6.09069 17.9653 6.59594 18.4715 6.65466 19.1101C6.71339 18.4715 7.21863 17.9663 7.85718 17.9066C7.21863 17.8479 6.71339 17.3426 6.65466 16.7041Z" fill="none"/>
</svg>