<svg width="27" height="26" viewBox="0 0 27 26" fill="none" xmlns="http://www.w3.org/2000/svg">
<g id="Group 4598059">
<path id="Vector" d="M12.0079 2.64844C11.5377 7.76099 7.49244 11.8063 2.37988 12.2765C7.49244 12.7467 11.5377 16.7994 12.0079 21.9119C12.4781 16.7994 16.5234 12.7541 21.6359 12.2765C16.5234 11.8063 12.4781 7.76099 12.0079 2.64844Z" stroke="white" stroke-width="1.8" stroke-linecap="round" stroke-linejoin="round"/>
<g id="Group 4598058">
<path id="Vector_2" d="M22.1148 0.953125C21.9566 2.67296 20.5958 4.03376 18.876 4.19193C20.5958 4.3501 21.9566 5.71341 22.1148 7.43324C22.273 5.71341 23.6338 4.35261 25.3536 4.19193C23.6338 4.03376 22.273 2.67296 22.1148 0.953125Z" stroke="white" stroke-width="1.8" stroke-linecap="round" stroke-linejoin="round"/>
<path id="Vector_3" d="M3.14782 22.9094C2.84639 23.1154 2.58562 23.3762 2.37961 23.6776C2.17372 23.3761 1.91306 23.1151 1.6117 22.909C1.91297 22.7032 2.17359 22.4426 2.37948 22.1414C2.58549 22.4428 2.84631 22.7035 3.14782 22.9094Z" stroke="white"/>
</g>
</g>
</svg>
