<svg width="18" height="18" viewBox="0 0 18 18" fill="none"
	 xmlns="http://www.w3.org/2000/svg">
	<path fill-rule="evenodd" clip-rule="evenodd"
		  d="M11.6541 2.52148C11.4056 2.52148 11.1595 2.57044 10.9299 2.66556C10.7003 2.76068 10.4917 2.90009 10.316 3.07584L6.09515 7.29666C6.09072 7.30088 6.08633 7.30516 6.08197 7.30951C6.07762 7.31386 6.07334 7.31825 6.06912 7.32268L1.8483 11.5435C1.67255 11.7192 1.53314 11.9278 1.43802 12.1574C1.3429 12.387 1.29395 12.6331 1.29395 12.8816C1.29395 13.1301 1.3429 13.3762 1.43802 13.6058C1.53314 13.8354 1.67255 14.044 1.8483 14.2197L3.9941 16.3655C4.13475 16.5062 4.32552 16.5852 4.52443 16.5852H15.1788C15.593 16.5852 15.9288 16.2494 15.9288 15.8352C15.9288 15.421 15.593 15.0852 15.1788 15.0852H9.56529L15.9453 8.70519L15.9454 8.70513C16.1211 8.52943 16.2605 8.32084 16.3556 8.09127C16.4507 7.86168 16.4997 7.61559 16.4997 7.36707C16.4997 7.11855 16.4507 6.87246 16.3556 6.64287C16.2605 6.4133 16.1211 6.20471 15.9454 6.02901L15.9453 6.02895L12.9922 3.07584C12.8165 2.90009 12.6079 2.76068 12.3783 2.66556C12.1487 2.57044 11.9026 2.52148 11.6541 2.52148ZM6.61246 8.90066L2.9089 12.6042L2.90884 12.6043C2.87242 12.6407 2.84352 12.6839 2.82381 12.7315C2.80409 12.7791 2.79395 12.8301 2.79395 12.8816C2.79395 12.9331 2.80409 12.9841 2.82381 13.0317C2.84352 13.0793 2.87242 13.1225 2.90884 13.159L2.9089 13.159L4.83509 15.0852H7.44397L10.1205 12.4087L6.61246 8.90066ZM11.1812 11.348L14.8847 7.64447L14.8848 7.64441C14.9212 7.60799 14.9501 7.56476 14.9698 7.51717C14.9895 7.46958 14.9997 7.41857 14.9997 7.36707C14.9997 7.31557 14.9895 7.26456 14.9698 7.21697C14.9501 7.16938 14.9212 7.12615 14.8848 7.08973L14.8847 7.08967L11.9315 4.13644L11.9314 4.13638C11.895 4.09996 11.8518 4.07106 11.8042 4.05135C11.7566 4.03163 11.7056 4.02148 11.6541 4.02148C11.6026 4.02148 11.5516 4.03163 11.504 4.05135C11.4564 4.07106 11.4132 4.09996 11.3767 4.13638L11.3767 4.13644L7.67312 7.84L11.1812 11.348Z"
		  fill="white"/>
</svg>
