<svg width="28" height="27" viewBox="0 0 28 27" fill="none"
	 xmlns="http://www.w3.org/2000/svg">
	<path
		d="M21.5 11.6702V20.9296C21.5 21.0269 21.4808 21.1232 21.4436 21.213C21.4064 21.3029 21.3518 21.3845 21.2831 21.4533C21.2143 21.5221 21.1327 21.5767 21.0428 21.6139C20.9529 21.6511 20.8566 21.6702 20.7594 21.6702H4.83333C4.61232 21.6702 4.40036 21.5825 4.24408 21.4262C4.0878 21.2699 4 21.0579 4 20.8369V9.17025C4 8.94923 4.0878 8.73727 4.24408 8.58099C4.40036 8.42471 4.61232 8.33691 4.83333 8.33691H9.55521C9.73552 8.33691 9.91096 8.3954 10.0552 8.50358L12.9448 10.6702C13.089 10.7784 13.2645 10.8369 13.4448 10.8369H20.6667C20.8877 10.8369 21.0996 10.9247 21.2559 11.081C21.4122 11.2373 21.5 11.4492 21.5 11.6702Z"
		stroke="white" stroke-width="0.2" stroke-linecap="round"
		stroke-linejoin="round"/>
	<path
		d="M21.5 11.6702V20.9296C21.5 21.0269 21.4808 21.1232 21.4436 21.213C21.4064 21.3029 21.3518 21.3845 21.2831 21.4533C21.2143 21.5221 21.1327 21.5767 21.0428 21.6139C20.9529 21.6511 20.8566 21.6702 20.7594 21.6702H4.83333C4.61232 21.6702 4.40036 21.5825 4.24408 21.4262C4.0878 21.2699 4 21.0579 4 20.8369V9.17025C4 8.94923 4.0878 8.73727 4.24408 8.58099C4.40036 8.42471 4.61232 8.33691 4.83333 8.33691H9.55521C9.73552 8.33691 9.91096 8.3954 10.0552 8.50358L12.9448 10.6702C13.089 10.7784 13.2645 10.8369 13.4448 10.8369H20.6667C20.8877 10.8369 21.0996 10.9247 21.2559 11.081C21.4122 11.2373 21.5 11.4492 21.5 11.6702Z"
		stroke="white" stroke-width="1.3" stroke-linecap="round"
		stroke-linejoin="round"/>
	<path
		d="M7.33398 8.33822V5.83822C7.33398 5.6172 7.42178 5.40524 7.57806 5.24896C7.73434 5.09268 7.9463 5.00488 8.16732 5.00488H12.8892C13.0695 5.00488 13.2449 5.06336 13.3892 5.17155L16.2788 7.33822C16.423 7.4464 16.5985 7.50488 16.7788 7.50488H24.0007C24.2217 7.50488 24.4336 7.59268 24.5899 7.74896C24.7462 7.90524 24.834 8.1172 24.834 8.33822V17.5976C24.834 17.794 24.756 17.9824 24.6171 18.1213C24.4782 18.2602 24.2898 18.3382 24.0934 18.3382H21.5007"
		stroke="white" stroke-width="1.3" stroke-linecap="round"
		stroke-linejoin="round"/>
</svg>