<svg width="28" height="28" viewBox="0 0 28 28" fill="none"
	 xmlns="http://www.w3.org/2000/svg">
	<g id="Folders">
		<path id="Vector"
			  d="M24.0003 7.00488H16.7785L13.8889 4.83822C13.6 4.62265 13.2493 4.50578 12.8889 4.50488H8.16699C7.72496 4.50488 7.30104 4.68048 6.98848 4.99304C6.67592 5.3056 6.50033 5.72952 6.50033 6.17155V7.83822H4.83366C4.39163 7.83822 3.96771 8.01381 3.65515 8.32637C3.34259 8.63893 3.16699 9.06286 3.16699 9.50488V21.1716C3.16699 21.6136 3.34259 22.0375 3.65515 22.3501C3.96771 22.6626 4.39163 22.8382 4.83366 22.8382H20.7597C21.177 22.8377 21.577 22.6717 21.872 22.3766C22.1671 22.0816 22.3331 21.6815 22.3337 21.2643V19.5049H24.093C24.5103 19.5043 24.9103 19.3383 25.2054 19.0433C25.5004 18.7482 25.6664 18.3482 25.667 17.9309V8.67155C25.667 8.22952 25.4914 7.8056 25.1788 7.49304C24.8663 7.18048 24.4424 7.00488 24.0003 7.00488ZM24.0003 17.8382H22.3337V12.0049C22.3337 11.5629 22.1581 11.1389 21.8455 10.8264C21.5329 10.5138 21.109 10.3382 20.667 10.3382H13.4451L10.5555 8.17155C10.2666 7.95598 9.91601 7.83911 9.55553 7.83822H8.16699V6.17155H12.8889L15.7785 8.33822C16.0674 8.55378 16.418 8.67066 16.7785 8.67155H24.0003V17.8382Z"
			  fill="#DE04A4"/>
	</g>
</svg>
