<svg xmlns="http://www.w3.org/2000/svg" width="28" height="28" viewBox="0 0 24 24" fill="none">
	<path d="M9.84131 11.0719L12.3009 13.5315" stroke="white" stroke-linecap="round" stroke-linejoin="round" stroke-width="1.5"/>
	<path d="M19.0693 9.83752L15.9902 12.9166" stroke="white" stroke-linecap="round" stroke-linejoin="round" stroke-width="1.5"/>
	<path
		d="M4.61499 7.07516L5.67337 5.98142C6.30146 5.35324 7.04713 4.85493 7.86782 4.51496C8.68851 4.17498 9.56812 4 10.4564 4C11.3448 4 12.2244 4.17498 13.0451 4.51496C13.8657 4.85493 14.6114 5.35324 15.2395 5.98142L20.4223 11.1995C20.5375 11.3148 20.6022 11.4712 20.6022 11.6342C20.6022 11.7972 20.5375 11.9535 20.4223 12.0688L18.2194 14.274C18.1041 14.3892 17.9478 14.4539 17.7848 14.4539C17.6218 14.4539 17.4654 14.3892 17.3501 14.274L14.4532 11.3794L6.63951 19.1931C6.52421 19.3083 6.36787 19.373 6.20486 19.373C6.04185 19.373 5.88552 19.3083 5.77021 19.1931L4.17995 17.6051C4.06473 17.4898 4 17.3335 4 17.1705C4 17.0075 4.06473 16.8511 4.17995 16.7358L11.9937 8.91982L7.67253 4.59869"
		stroke="white" stroke-linecap="round" stroke-linejoin="round" stroke-width="1.5"/>
</svg>