<svg width="15" height="10" viewBox="-38 0 100 25" fill="none"
	 xmlns="http://www.w3.org/2000/svg">
	<path
		d="M8.25 7.125V4.125C8.25 3.62772 8.44754 3.15081 8.79917 2.79917C9.15081 2.44754 9.62772 2.25 10.125 2.25C10.6223 2.25 11.0992 2.44754 11.4508 2.79917C11.8025 3.15081 12 3.62772 12 4.125V9.75"
		stroke="white" stroke-linecap="round" stroke-linejoin="round"/>
	<path
		d="M12 5.625C12 5.12772 12.1975 4.65081 12.5492 4.29917C12.9008 3.94754 13.3777 3.75 13.875 3.75C14.3723 3.75 14.8492 3.94754 15.2008 4.29917C15.5525 4.65081 15.75 5.12772 15.75 5.625V11.25"
		stroke="white" stroke-linecap="round" stroke-linejoin="round"/>
	<path
		d="M15.75 11.25V10.875C15.75 10.3777 15.9475 9.90081 16.2992 9.54917C16.6508 9.19754 17.1277 9 17.625 9C18.1223 9 18.5992 9.19754 18.9508 9.54917C19.3025 9.90081 19.5 10.3777 19.5 10.875V14.25C19.5 16.2391 18.7098 18.1468 17.3033 19.5533C15.8968 20.9598 13.9891 21.75 12 21.75C10.0109 21.75 8.10322 20.9598 6.6967 19.5533C5.29018 18.1468 4.5 16.2391 4.5 14.25V7.125C4.5 6.62772 4.69754 6.15081 5.04917 5.79917C5.40081 5.44754 5.87772 5.25 6.375 5.25C6.87228 5.25 7.34919 5.44754 7.70083 5.79917C8.05246 6.15081 8.25 6.62772 8.25 7.125V10.5"
		stroke="white" stroke-linecap="round" stroke-linejoin="round"/>
	<path
		d="M12 16.875C12.6213 16.875 13.125 16.3713 13.125 15.75C13.125 15.1287 12.6213 14.625 12 14.625C11.3787 14.625 10.875 15.1287 10.875 15.75C10.875 16.3713 11.3787 16.875 12 16.875Z"
		fill="white"/>
	<path
		d="M7.5 15.75C7.5 15.75 9 12.75 12 12.75C15 12.75 16.5 15.75 16.5 15.75C16.5 15.75 15 18.75 12 18.75C9 18.75 7.5 15.75 7.5 15.75Z"
		stroke="white" stroke-linecap="round" stroke-linejoin="round"/>
</svg>
