<svg width="25" height="25" viewBox="0 0 25 25" fill="none" xmlns="http://www.w3.org/2000/svg">
<path fill-rule="evenodd" clip-rule="evenodd" d="M5.82836 4.64169C5.29773 4.66606 4.875 5.10397 4.875 5.64062V19.6406C4.875 20.1929 5.32272 20.6406 5.875 20.6406H19.875C19.9305 20.6406 19.9849 20.6361 20.0379 20.6274L14.9033 14.851C14.3693 15.3413 13.6571 15.6406 12.875 15.6406C11.2181 15.6406 9.875 14.2975 9.875 12.6406C9.875 11.7317 10.2792 10.9173 10.9176 10.3671L5.82836 4.64169ZM15.7032 13.6436C15.8145 13.33 15.875 12.9924 15.875 12.6406C15.875 10.9838 14.5319 9.64062 12.875 9.64062C12.6467 9.64062 12.4243 9.66613 12.2106 9.71445L7.70055 4.64062H19.875C20.4273 4.64062 20.875 5.08834 20.875 5.64062V19.4619L15.7032 13.6436Z" fill="white"/>
<path d="M4.875 3.64062L20.875 21.6406" stroke="white" stroke-width="1.4" stroke-linecap="round" stroke-linejoin="round"/>
</svg>
