<svg width="19" height="18" viewBox="0 0 19 18" fill="none"
	 xmlns="http://www.w3.org/2000/svg">
	<g id="Group 136">
		<path id="Vector" d="M8.99998 5V10.3333L13 13" stroke="white"
			  stroke-linecap="round" stroke-linejoin="round" stroke-width="1.5"/>
		<path id="Vector_2" d="M4.45716 6.92708H0.695114V3.16504" stroke="white"
			  stroke-linecap="round" stroke-linejoin="round" stroke-width="2"/>
		<path id="Vector_3"
			  d="M4.04333 15.2033C5.22646 16.3198 6.71235 17.0628 8.31535 17.3395C9.91834 17.6163 11.5673 17.4146 13.0563 16.7595C14.5453 16.1045 15.8083 15.0251 16.6874 13.6564C17.5665 12.2877 18.0227 10.6903 17.9991 9.06375C17.9756 7.43721 17.4732 5.85368 16.5548 4.51102C15.6364 3.16837 14.3427 2.12612 12.8353 1.5145C11.328 0.902889 9.67381 0.74903 8.07951 1.07215C6.48522 1.39527 5.02149 2.18104 3.87122 3.33128C2.76424 4.45237 1.85006 5.50951 0.695114 6.92686"
			  stroke="white" stroke-linecap="round" stroke-linejoin="round" stroke-width="1.5"/>
	</g>
</svg>
