<svg width="25" height="24" viewBox="0 0 25 24" fill="none"
	 xmlns="http://www.w3.org/2000/svg">
	<g id="Icons/Home">
		<path id="Vector"
			  d="M13.5414 3.20378C13.3908 3.07263 13.1944 2.99994 12.9907 2.99994C12.787 2.99994 12.5906 3.07263 12.44 3.20378L4.25814 10.5934C4.17394 10.6668 4.10671 10.7563 4.06074 10.856C4.01478 10.9557 3.99109 11.0635 3.99121 11.1725V20.2173C3.99121 20.4249 4.07741 20.624 4.23085 20.7707C4.38429 20.9175 4.5924 20.9999 4.80939 20.9999H21.173C21.39 20.9999 21.5981 20.9175 21.7516 20.7707C21.905 20.624 21.9912 20.4249 21.9912 20.2173V11.1725C21.9912 11.0635 21.9674 10.9556 21.9212 10.8559C21.8751 10.7562 21.8076 10.6668 21.7233 10.5934L13.5414 3.20378Z"
			  stroke="white" stroke-linecap="round" stroke-linejoin="round" stroke-width="1.3"/>
	</g>
</svg>
