<svg width="20" height="20" viewBox="0 0 29 17" fill="none" xmlns="http://www.w3.org/2000/svg">
	<g id="Group 4597933">
		<path id="Vector"
			  d="M3.39998 4.84C4.46037 4.84 5.31998 3.98039 5.31998 2.92C5.31998 1.85961 4.46037 1 3.39998 1C2.33959 1 1.47998 1.85961 1.47998 2.92C1.47998 3.98039 2.33959 4.84 3.39998 4.84Z"
			  stroke="white" stroke-width="2" stroke-linecap="round" stroke-linejoin="round"/>
		<path id="Vector_2"
			  d="M1 14.4419L12.8995 3.28385C13.0159 3.1691 13.1541 3.07807 13.3063 3.01596C13.4585 2.95384 13.6216 2.92188 13.7863 2.92188C13.951 2.92188 14.1141 2.95384 14.2662 3.01596C14.4184 3.07807 14.5566 3.1691 14.6731 3.28385L20.2 8.20187"
			  stroke="white" stroke-width="2.5" stroke-linecap="round" stroke-linejoin="round"/>
		<path id="Vector_3"
			  d="M13 15.4017L21.415 7.02717C21.5045 6.94302 21.6109 6.87626 21.7279 6.83071C21.845 6.78516 21.9704 6.76172 22.0971 6.76172C22.2238 6.76172 22.3493 6.78516 22.4663 6.83071C22.5834 6.87626 22.6897 6.94302 22.7793 7.02717L27.4 11.366"
			  stroke="white" stroke-width="2.5" stroke-linecap="round" stroke-linejoin="round"/>
	</g>
</svg>
