<svg width="29" height="18" viewBox="0 0 29 18" fill="none" xmlns="http://www.w3.org/2000/svg">
<g id="Group 4597933">
<path id="Vector" d="M3.3907 5.70133C4.45109 5.70133 5.3107 4.84171 5.3107 3.78133C5.3107 2.72094 4.45109 1.86133 3.3907 1.86133C2.33032 1.86133 1.4707 2.72094 1.4707 3.78133C1.4707 4.84171 2.33032 5.70133 3.3907 5.70133Z" stroke="white" stroke-width="1.8" stroke-linecap="round" stroke-linejoin="round"/>
<path id="Vector_2" d="M0.990234 15.3012L12.8897 4.14323C13.0061 4.02848 13.1444 3.93744 13.2965 3.87533C13.4487 3.81322 13.6118 3.78125 13.7765 3.78125C13.9412 3.78125 14.1043 3.81322 14.2565 3.87533C14.4086 3.93744 14.5469 4.02848 14.6633 4.14323L20.1902 9.06125" stroke="white" stroke-width="1.8" stroke-linecap="round" stroke-linejoin="round"/>
<path id="Vector_3" d="M12.9902 16.263L21.4052 7.8885C21.4948 7.80435 21.6011 7.73759 21.7182 7.69204C21.8352 7.64649 21.9607 7.62305 22.0874 7.62305C22.2141 7.62305 22.3395 7.64649 22.4566 7.69204C22.5736 7.73759 22.68 7.80435 22.7695 7.8885L27.3902 12.2273" stroke="white" stroke-width="1.8" stroke-linecap="round" stroke-linejoin="round"/>
</g>
</svg>
