<svg width="26" height="25" viewBox="1 0 25 22" fill="none"
	 xmlns="http://www.w3.org/2000/svg">
	<g id="Group 114" opacity="1">
		<path id="Vector"
			  d="M24.0249 17.5214L19.49 12.0147C19.3892 11.9123 19.2694 11.8311 19.1376 11.7757C19.0057 11.7202 18.8644 11.6917 18.7217 11.6917C18.579 11.6917 18.4377 11.7202 18.3058 11.7757C18.174 11.8311 18.0542 11.9123 17.9534 12.0147L14.3103 15.7102C14.0512 15.973 13.6251 15.9666 13.3741 15.696L8.62159 10.5747C8.36751 10.3009 7.93515 10.2982 7.67756 10.5687L2.32225 16.1925"
			  stroke="white" stroke-width="2" stroke-miterlimit="10"/>
		<g id="Group 113">
			<!-- <path id="Rectangle 172"
				  d="M16.5746 1H9.4484C5.15489 1 1.67432 4.48058 1.67432 8.77409V15.2525C1.67432 19.546 5.15489 23.0266 9.4484 23.0266H16.5746C20.8682 23.0266 24.3487 19.546 24.3487 15.2525V5.53488"
				  stroke="white" stroke-width="2" stroke-miterlimit="10"/> -->
		</g>
		<path id="Vector_2"
			  d="M19.0057 5.71514L19.0057 5.71518L19.0057 5.71514ZM18.3122 6.47629C18.374 6.52339 18.4404 6.56423 18.5102 6.59819C18.4688 6.67185 18.4353 6.74961 18.4105 6.83001C18.3901 6.89607 18.3755 6.96351 18.3669 7.03154C18.3101 7.02304 18.2524 7.01869 18.1942 7.01869C18.136 7.01869 18.0783 7.02304 18.0215 7.03154C18.0129 6.96351 17.9983 6.89607 17.9779 6.83001C17.9531 6.74961 17.9196 6.67185 17.8782 6.59819C17.948 6.56423 18.0144 6.52339 18.0762 6.47629C18.1181 6.44438 18.1575 6.40994 18.1942 6.3733C18.2309 6.40994 18.2703 6.44438 18.3122 6.47629Z"
			  stroke="white" stroke-width="3" stroke-miterlimit="10"/>
	</g>
</svg>
