<svg width="28" height="28" viewBox="0 0 28 28" fill="none"
	 xmlns="http://www.w3.org/2000/svg">
	<path
		d="M14.1953 24.3555C19.7182 24.3555 24.1953 19.8783 24.1953 14.3555C24.1953 8.83262 19.7182 4.35547 14.1953 4.35547C8.67246 4.35547 4.19531 8.83262 4.19531 14.3555C4.19531 19.8783 8.67246 24.3555 14.1953 24.3555Z"
		stroke="white" stroke-width="2" stroke-linecap="round"
		stroke-linejoin="round"/>
	<path
		d="M13.3623 13.5215C13.5833 13.5215 13.7953 13.6093 13.9516 13.7656C14.1078 13.9218 14.1956 14.1338 14.1956 14.3548V18.5215C14.1956 18.7425 14.2834 18.9545 14.4397 19.1107C14.596 19.267 14.808 19.3548 15.029 19.3548"
		stroke="white" stroke-width="2" stroke-linecap="round"
		stroke-linejoin="round"/>
	<path
		d="M13.7783 11.0215C14.4687 11.0215 15.0283 10.4618 15.0283 9.77148C15.0283 9.08113 14.4687 8.52148 13.7783 8.52148C13.088 8.52148 12.5283 9.08113 12.5283 9.77148C12.5283 10.4618 13.088 11.0215 13.7783 11.0215Z"
		stroke="white" stroke-width="2" stroke-linecap="round"
		stroke-linejoin="round"/>
</svg>