<svg width="28" height="28" viewBox="0 0 28 28" fill="none"
	 xmlns="http://www.w3.org/2000/svg">
	<g id="DiscordLogo">
		<g id="Group 45957">
			<path id="Vector"
				  d="M14.1953 23.3555C19.7182 23.3555 24.1953 18.8783 24.1953 13.3555C24.1953 7.83262 19.7182 3.35547 14.1953 3.35547C8.67246 3.35547 4.19531 7.83262 4.19531 13.3555C4.19531 18.8783 8.67246 23.3555 14.1953 23.3555Z"
				  fill="#DE04A4"/>
			<path id="Vector_2"
				  d="M13.3623 12.5215C13.5833 12.5215 13.7953 12.6093 13.9516 12.7656C14.1078 12.9218 14.1956 13.1338 14.1956 13.3548V17.5215C14.1956 17.7425 14.2834 17.9545 14.4397 18.1107C14.596 18.267 14.808 18.3548 15.029 18.3548"
				  stroke="#0E0D0F" stroke-width="1.5" stroke-linecap="round"
				  stroke-linejoin="round"/>
			<path id="Vector_3"
				  d="M13.7783 10.0215C14.4687 10.0215 15.0283 9.46184 15.0283 8.77148C15.0283 8.08113 14.4687 7.52148 13.7783 7.52148C13.088 7.52148 12.5283 8.08113 12.5283 8.77148C12.5283 9.46184 13.088 10.0215 13.7783 10.0215Z"
				  fill="#0E0D0F"/>
		</g>
	</g>
</svg>
