<svg width="26" height="21" viewBox="0 0 26 21" fill="none" xmlns="http://www.w3.org/2000/svg">
	<g id="Group 45976">
		<path id="Vector"
			  d="M1.3999 20.0502H9.98888C11.1512 20.0502 12.2874 19.7056 13.2538 19.0598C14.2202 18.4141 14.9734 17.4963 15.4182 16.4224C15.863 15.3486 15.9794 14.167 15.7526 13.0271C15.5259 11.8871 14.9662 10.84 14.1443 10.0181C13.3224 9.19625 12.2753 8.63655 11.1354 8.4098C9.9954 8.18304 8.8138 8.29942 7.73998 8.74421C6.66616 9.189 5.74835 9.94223 5.10261 10.9086C4.45687 11.8751 4.11221 13.0113 4.11221 14.1735C4.11221 18.242 1.3999 20.0502 1.3999 20.0502Z"
			  stroke="white" stroke-width="1.8" stroke-linecap="round" stroke-linejoin="round"/>
		<path id="Vector_2"
			  d="M19.7557 1.72C17.9156 4.10529 17.9156 4.10529 15.991 7.2141L18.7093 10.6536C20.3333 10.1102 22.5059 9.3244 24.7141 8.23581"
			  stroke="white" stroke-width="1.8" stroke-linecap="round" stroke-linejoin="round"/>
		<path id="Vector 659" d="M14.574 11.1406C14.0574 13.2071 13.0241 14.757 9.92432 15.7903" stroke="white" stroke-width="1.8"
			  stroke-linecap="round" stroke-linejoin="round"/>
	</g>
</svg>
