<svg width="29" height="29" viewBox="0 0 29 29" fill="none" xmlns="http://www.w3.org/2000/svg">
<path d="M12.6636 13.3571L16.9761 17.6696" stroke="white" stroke-width="1.4" stroke-linecap="round" stroke-linejoin="round"/>
<path d="M13.7415 20.9038L20.9724 13.673C21.0725 13.5729 21.152 13.454 21.2062 13.3232C21.2604 13.1924 21.2882 13.0521 21.2882 12.9105C21.2882 12.7689 21.2604 12.6287 21.2062 12.4979C21.152 12.3671 21.0725 12.2482 20.9724 12.1481L18.1848 9.36048C18.0846 9.26034 17.9658 9.1809 17.835 9.12671C17.7041 9.07251 17.5639 9.04462 17.4223 9.04462C17.2807 9.04462 17.1405 9.07251 17.0097 9.12671C16.8789 9.1809 16.76 9.26034 16.6599 9.36048L8.66694 17.3534C8.5668 17.4535 8.48736 17.5724 8.43317 17.7032C8.37897 17.834 8.35107 17.9743 8.35107 18.1159C8.35107 18.2575 8.37897 18.3977 8.43317 18.5285C8.48736 18.6593 8.5668 18.7782 8.66694 18.8783L10.6925 20.9038H20.7493" stroke="white" stroke-width="1.4" stroke-linecap="round" stroke-linejoin="round"/>
</svg>
