<svg width="9" height="12" viewBox="0 0 9 12" fill="none" xmlns="http://www.w3.org/2000/svg">
<path opacity="0.6" d="M6.51068 10.802C6.51068 10.8993 6.47203 10.9927 6.40321 11.0615C6.3344 11.1303 6.24107 11.1689 6.14375 11.1689H2.47438C2.37707 11.1689 2.28373 11.1303 2.21492 11.0615C2.14611 10.9927 2.10745 10.8993 2.10745 10.802C2.10745 10.7047 2.14611 10.6114 2.21492 10.5425C2.28373 10.4737 2.37707 10.4351 2.47438 10.4351H6.14375C6.24107 10.4351 6.3344 10.4737 6.40321 10.5425C6.47203 10.6114 6.51068 10.7047 6.51068 10.802ZM8.34537 4.93103C8.34695 5.54273 8.20876 6.14671 7.94135 6.69687C7.67394 7.24703 7.28438 7.72882 6.8024 8.10549C6.71228 8.17457 6.63914 8.26334 6.58858 8.36501C6.53802 8.46669 6.51138 8.57857 6.51068 8.69212V8.96733C6.51068 9.16196 6.43337 9.34863 6.29574 9.48625C6.15811 9.62388 5.97145 9.7012 5.77681 9.7012H2.84132C2.64668 9.7012 2.46002 9.62388 2.32239 9.48625C2.18477 9.34863 2.10745 9.16196 2.10745 8.96733V8.69212C2.10737 8.57993 2.08157 8.46925 2.03204 8.36859C1.9825 8.26792 1.91054 8.17996 1.8217 8.11145C1.34092 7.73701 0.951619 7.25811 0.683265 6.71099C0.414912 6.16388 0.274537 5.56288 0.272765 4.9535C0.26084 2.76748 2.02764 0.947015 4.21183 0.894726C4.75001 0.881757 5.28535 0.976577 5.78633 1.17361C6.28732 1.37063 6.74383 1.66589 7.12899 2.04199C7.51416 2.4181 7.82019 2.86745 8.02909 3.36361C8.23799 3.85976 8.34552 4.39269 8.34537 4.93103ZM6.87258 4.50263C6.77743 3.97116 6.52173 3.48161 6.13992 3.09988C5.7581 2.71814 5.26849 2.46255 4.73701 2.36752C4.68948 2.35951 4.64084 2.36093 4.59387 2.37172C4.5469 2.38251 4.50251 2.40244 4.46324 2.43038C4.42397 2.45832 4.39059 2.49372 4.365 2.53456C4.33942 2.5754 4.32212 2.62088 4.31411 2.6684C4.3061 2.71593 4.30753 2.76457 4.31831 2.81154C4.3291 2.85851 4.34903 2.9029 4.37697 2.94217C4.40491 2.98144 4.44031 3.01482 4.48115 3.04041C4.52199 3.06599 4.56747 3.08329 4.615 3.0913C5.37502 3.21927 6.01991 3.86416 6.14879 4.62555C6.16331 4.71101 6.20762 4.78857 6.27386 4.84449C6.3401 4.9004 6.424 4.93106 6.51068 4.93103C6.53142 4.9309 6.55212 4.92922 6.57261 4.92598C6.66852 4.90961 6.754 4.85581 6.81025 4.77642C6.86651 4.69703 6.88892 4.59855 6.87258 4.50263Z" fill="white"/>
</svg>
