<svg width="15" height="18" viewBox="0 0 15 18" fill="none" xmlns="http://www.w3.org/2000/svg">
<g filter="url(#filter0_d_9946_70285)">
<path d="M9.51068 13.802C9.51068 13.8993 9.47203 13.9927 9.40321 14.0615C9.3344 14.1303 9.24107 14.1689 9.14375 14.1689H5.47438C5.37707 14.1689 5.28373 14.1303 5.21492 14.0615C5.14611 13.9927 5.10745 13.8993 5.10745 13.802C5.10745 13.7047 5.14611 13.6114 5.21492 13.5425C5.28373 13.4737 5.37707 13.4351 5.47438 13.4351H9.14375C9.24107 13.4351 9.3344 13.4737 9.40321 13.5425C9.47203 13.6114 9.51068 13.7047 9.51068 13.802ZM11.3454 7.93103C11.3469 8.54273 11.2088 9.14671 10.9414 9.69687C10.6739 10.247 10.2844 10.7288 9.8024 11.1055C9.71228 11.1746 9.63914 11.2633 9.58858 11.365C9.53802 11.4667 9.51138 11.5786 9.51068 11.6921V11.9673C9.51068 12.162 9.43337 12.3486 9.29574 12.4863C9.15811 12.6239 8.97145 12.7012 8.77681 12.7012H5.84132C5.64668 12.7012 5.46002 12.6239 5.32239 12.4863C5.18477 12.3486 5.10745 12.162 5.10745 11.9673V11.6921C5.10737 11.5799 5.08157 11.4693 5.03204 11.3686C4.9825 11.2679 4.91054 11.18 4.8217 11.1114C4.34092 10.737 3.95162 10.2581 3.68327 9.71099C3.41491 9.16388 3.27454 8.56288 3.27277 7.9535C3.26084 5.76748 5.02764 3.94701 7.21183 3.89473C7.75001 3.88176 8.28535 3.97658 8.78633 4.17361C9.28732 4.37063 9.74383 4.66589 10.129 5.04199C10.5142 5.4181 10.8202 5.86745 11.0291 6.36361C11.238 6.85976 11.3455 7.39269 11.3454 7.93103ZM9.87258 7.50263C9.77743 6.97116 9.52173 6.48161 9.13992 6.09988C8.7581 5.71814 8.26849 5.46255 7.73701 5.36752C7.68948 5.35951 7.64084 5.36093 7.59387 5.37172C7.5469 5.38251 7.50251 5.40244 7.46324 5.43038C7.42397 5.45832 7.39059 5.49372 7.365 5.53456C7.33942 5.5754 7.32212 5.62088 7.31411 5.6684C7.3061 5.71593 7.30753 5.76457 7.31831 5.81154C7.3291 5.85851 7.34903 5.9029 7.37697 5.94217C7.40491 5.98144 7.44031 6.01482 7.48115 6.04041C7.52199 6.06599 7.56747 6.08329 7.615 6.0913C8.37502 6.21927 9.01991 6.86416 9.14879 7.62555C9.16331 7.71101 9.20762 7.78857 9.27386 7.84449C9.3401 7.9004 9.424 7.93106 9.51068 7.93103C9.53142 7.9309 9.55212 7.92922 9.57261 7.92598C9.66852 7.90961 9.754 7.85581 9.81025 7.77642C9.86651 7.69703 9.88892 7.59855 9.87258 7.50263Z" fill="white"/>
</g>
<defs>
<filter id="filter0_d_9946_70285" x="0.272705" y="0.893555" width="14.0728" height="16.2754" filterUnits="userSpaceOnUse" color-interpolation-filters="sRGB">
<feFlood flood-opacity="0" result="BackgroundImageFix"/>
<feColorMatrix in="SourceAlpha" type="matrix" values="0 0 0 0 0 0 0 0 0 0 0 0 0 0 0 0 0 0 127 0" result="hardAlpha"/>
<feOffset/>
<feGaussianBlur stdDeviation="1.5"/>
<feComposite in2="hardAlpha" operator="out"/>
<feColorMatrix type="matrix" values="0 0 0 0 1 0 0 0 0 1 0 0 0 0 1 0 0 0 0.72 0"/>
<feBlend mode="normal" in2="BackgroundImageFix" result="effect1_dropShadow_9946_70285"/>
<feBlend mode="normal" in="SourceGraphic" in2="effect1_dropShadow_9946_70285" result="shape"/>
</filter>
</defs>
</svg>
