<svg width="140" height="43" viewBox="0 0 140 43" fill="none" xmlns="http://www.w3.org/2000/svg">
	<path
		d="M15.3503 19.748L13.5506 14.9858H4.35834L2.55866 19.748H0.509785L7.95772 0.366816H9.95121L17.3991 19.748H15.3503ZM5.05053 13.1584H12.8584L8.95446 2.77563L5.05053 13.1584ZM31.7934 19.748L27.2526 11.9956H21.8259V19.748H19.8878V0.366816H27.6403C30.852 0.366816 33.4546 2.96944 33.4546 6.18119C33.4546 8.8115 31.6826 11.0542 29.2738 11.7464L34.0084 19.748H31.7934ZM21.8259 2.19419V10.1682H27.6403C29.7722 10.1682 31.5165 8.3685 31.5165 6.18119C31.5165 3.96619 29.7722 2.19419 27.6403 2.19419H21.8259ZM45.8407 20.0803C39.8879 20.0803 35.6794 15.5949 35.6794 10.0574C35.6794 4.51994 39.8879 0.0345669 45.8407 0.0345669C49.44 0.0345669 52.6241 1.91731 54.23 4.79681L52.5133 5.79356C51.3228 3.46781 48.7479 1.91731 45.8407 1.91731C40.94 1.91731 37.6175 5.54437 37.6175 10.0574C37.6175 14.5705 40.94 18.1975 45.8407 18.1975C48.7479 18.1975 51.3228 16.647 52.5133 14.3213L54.23 15.2904C52.6518 18.1699 49.4677 20.0803 45.8407 20.0803ZM70.0493 19.748L68.2496 14.9858H59.0573L57.2576 19.748H55.2088L62.6567 0.366816H64.6502L72.0981 19.748H70.0493ZM59.7495 13.1584H67.5574L63.6534 2.77563L59.7495 13.1584ZM87.0461 0.366816H88.9842V19.748H87.323L76.5249 3.96619V19.748H74.5868V0.366816H76.248L87.0461 16.1487V0.366816ZM106.308 19.748L104.508 14.9858H95.316L93.5163 19.748H91.4675L98.9154 0.366816H100.909L108.357 19.748H106.308ZM96.0082 13.1584H103.816L99.9121 2.77563L96.0082 13.1584Z"
		fill="#D8EDF9"/>
	<path
		d="M130.67 19.748L128.87 14.9858H119.678L117.878 19.748H115.829L123.277 0.366816H125.271L132.719 19.748H130.67ZM120.37 13.1584H128.178L124.274 2.77563L120.37 13.1584ZM135.207 0.366816H137.145V19.748H135.207V0.366816Z"
		fill="#E138BB"/>
	<rect x="47.7217" y="26.4062" width="44.5571" height="16.2319" rx="8.11594" fill="url(#paint0_linear_4712_105874)"/>
	<path
		d="M56.6878 37.5215L56.1907 36.091H53.1675L52.6704 37.5215H51.4023L53.9791 30.42H55.3791L57.9458 37.5215H56.6878ZM53.553 34.9954H55.8052L54.6791 31.7896L53.553 34.9954ZM61.6007 36.4055H64.492V37.5215H60.434V30.42H61.6007V36.4055ZM69.6999 30.42C71.0391 30.42 72.0536 31.4345 72.0536 32.7534C72.0536 34.0621 71.0391 35.0867 69.6999 35.0867H68.2492V37.5215H67.0825V30.42H69.6999ZM69.6999 33.991C70.3898 33.991 70.8869 33.4635 70.8869 32.7534C70.8869 32.0331 70.3898 31.5157 69.6999 31.5157H68.2492V33.991H69.6999ZM79.0012 30.42H80.1679V37.5215H79.0012V34.4476H75.9578V37.5215H74.7911V30.42H75.9578V33.3316H79.0012V30.42ZM87.9381 37.5215L87.441 36.091H84.4178L83.9207 37.5215H82.6526L85.2294 30.42H86.6294L89.1961 37.5215H87.9381ZM84.8034 34.9954H87.0555L85.9294 31.7896L84.8034 34.9954Z"
		fill="black"/>
	<defs>
		<linearGradient id="paint0_linear_4712_105874" x1="72.7784" y1="46.6484" x2="93.4186" y2="20.0925" gradientUnits="userSpaceOnUse">
			<stop stop-color="#E138BB"/>
			<stop offset="1" stop-color="white"/>
		</linearGradient>
	</defs>
</svg>
