<svg width="80" height="80" viewBox="0 0 80 80" fill="none"
	 xmlns="http://www.w3.org/2000/svg">
	<rect width="80" height="80" rx="40" fill="#464178" fill-opacity="0.24"/>
	<path
		d="M55 47.1151V33.7817C54.9994 33.1972 54.8451 32.6231 54.5526 32.117C54.26 31.6109 53.8396 31.1907 53.3333 30.8984L41.6667 24.2317C41.1599 23.9392 40.5851 23.7852 40 23.7852C39.4149 23.7852 38.8401 23.9392 38.3333 24.2317L26.6667 30.8984C26.1604 31.1907 25.74 31.6109 25.4474 32.117C25.1549 32.6231 25.0006 33.1972 25 33.7817V47.1151C25.0006 47.6996 25.1549 48.2737 25.4474 48.7798C25.74 49.2859 26.1604 49.7061 26.6667 49.9984L38.3333 56.6651C38.8401 56.9576 39.4149 57.1117 40 57.1117C40.5851 57.1117 41.1599 56.9576 41.6667 56.6651L53.3333 49.9984C53.8396 49.7061 54.26 49.2859 54.5526 48.7798C54.8451 48.2737 54.9994 47.6996 55 47.1151Z"
		stroke="#60E09F" stroke-width="2" stroke-linecap="round"
		stroke-linejoin="round"/>
	<path d="M25.45 32.0508L40 40.4674L54.5499 32.0508" stroke="#60E09F"
		  stroke-width="2" stroke-linecap="round" stroke-linejoin="round"/>
	<path d="M40 57.2492V40.4492" stroke="#60E09F" stroke-width="2"
		  stroke-linecap="round" stroke-linejoin="round"/>
	<rect x="1" y="1" width="78" height="78" rx="39" stroke="#464178"
		  stroke-opacity="0.24" stroke-width="2"/>
</svg>
