<svg xmlns="http://www.w3.org/2000/svg" width="24" height="24" viewBox="0 0 24 24" fill="none">
    <path d="M12.6348 3.43392L14.644 8.41959C14.6926 8.54059 14.772 8.64546 14.8737 8.72291C14.9754 8.80036 15.0954 8.84744 15.2209 8.85908L20.3635 9.32199C20.5 9.33341 20.6301 9.38672 20.7374 9.47517C20.8448 9.56362 20.9245 9.68324 20.9666 9.8189C21.0086 9.95455 21.0111 10.1001 20.9736 10.2372C20.9362 10.3744 20.8605 10.4968 20.7562 10.5891L16.8546 14.1329C16.7598 14.2197 16.6893 14.3316 16.6506 14.4567C16.612 14.5818 16.6065 14.7155 16.635 14.8435L17.8043 20.1156C17.8352 20.2533 17.8265 20.3974 17.7793 20.53C17.7321 20.6626 17.6485 20.7778 17.5388 20.8612C17.4292 20.9446 17.2984 20.9926 17.1627 20.9992C17.0271 21.0058 16.8926 20.9707 16.7759 20.8982L12.3563 18.1064C12.2489 18.0384 12.1257 18.0024 12 18.0024C11.8743 18.0024 11.7511 18.0384 11.6437 18.1064L7.22406 20.8982C7.10745 20.9707 6.97293 21.0058 6.83728 20.9992C6.70162 20.9926 6.57083 20.9446 6.46119 20.8612C6.35155 20.7778 6.26791 20.6626 6.2207 20.53C6.17349 20.3974 6.1648 20.2533 6.1957 20.1156L7.36504 14.8435C7.39346 14.7155 7.38804 14.5818 7.34936 14.4567C7.31068 14.3316 7.24018 14.2197 7.14535 14.1329L3.24382 10.5891C3.13951 10.4968 3.06385 10.3744 3.0264 10.2372C2.98895 10.1001 2.99139 9.95455 3.03343 9.8189C3.07547 9.68324 3.1552 9.56362 3.26255 9.47517C3.3699 9.38672 3.50003 9.33341 3.63648 9.32199L8.77914 8.85908C8.9046 8.84744 9.02464 8.80036 9.1263 8.72291C9.22796 8.64546 9.30739 8.54059 9.35602 8.41959L11.3652 3.43392C11.4188 3.30502 11.5075 3.19526 11.6203 3.11817C11.7331 3.04107 11.8651 3 12 3C12.1349 3 12.2669 3.04107 12.3797 3.11817C12.4925 3.19526 12.5812 3.30502 12.6348 3.43392Z" 
    stroke="white" 
    stroke-width="1.4" 
    stroke-linecap="round" 
    stroke-linejoin="round"/>
</svg>