<svg width="28" height="28" viewBox="0 0 28 28" fill="none" xmlns="http://www.w3.org/2000/svg">
  <g>
    <path d="M13.5549 8.00191C15.0276 8.00191 16.2215 6.80801 16.2215 5.33525C16.2215 3.86249 15.0276 2.66858 13.5549 2.66858C12.0821 2.66858 10.8882 3.86249 10.8882 5.33525C10.8882 6.80801 12.0821 8.00191 13.5549 8.00191Z" stroke="white" stroke-width="1.5" stroke-linecap="round" stroke-linejoin="round"/>
    <path d="M4.66618 16.0019C6.13894 16.0019 7.33285 14.808 7.33285 13.3352C7.33285 11.8625 6.13894 10.6686 4.66618 10.6686C3.19342 10.6686 1.99951 11.8625 1.99951 13.3352C1.99951 14.808 3.19342 16.0019 4.66618 16.0019Z" stroke="white" stroke-width="1.5" stroke-linecap="round" stroke-linejoin="round"/>
    <path d="M18.0002 25.7793C19.4729 25.7793 20.6668 24.5853 20.6668 23.1126C20.6668 21.6398 19.4729 20.4459 18.0002 20.4459C16.5274 20.4459 15.3335 21.6398 15.3335 23.1126C15.3335 24.5853 16.5274 25.7793 18.0002 25.7793Z" stroke="white" stroke-width="1.5" stroke-linecap="round" stroke-linejoin="round"/>
    <path d="M23.3322 10.6679C24.805 10.6679 25.9989 9.47402 25.9989 8.00126C25.9989 6.5285 24.805 5.33459 23.3322 5.33459C21.8594 5.33459 20.6655 6.5285 20.6655 8.00126C20.6655 9.47402 21.8594 10.6679 23.3322 10.6679Z" stroke="white" stroke-width="1.5" stroke-linecap="round" stroke-linejoin="round"/>
    <path d="M20.7618 7.30021L16.1284 6.03577" stroke="white" stroke-width="1.5" stroke-linecap="round" stroke-linejoin="round"/>
    <path d="M11.5734 7.12L6.64893 11.5511" stroke="white" stroke-width="1.5" stroke-linecap="round" stroke-linejoin="round"/>
    <path d="M6.81885 14.9108L15.85 21.5352" stroke="white" stroke-width="1.5" stroke-linecap="round" stroke-linejoin="round"/>
    <path d="M18.8882 20.5982L22.446 10.5182" stroke="white" stroke-width="1.5" stroke-linecap="round" stroke-linejoin="round"/>
  </g>
</svg>