<svg width="25" height="24" viewBox="0 0 25 24" fill="none"
	 xmlns="http://www.w3.org/2000/svg">
	<path d="M3.23071 6H5.23071H21.2307" stroke="white" stroke-linecap="round"
		  stroke-linejoin="round"/>
	<path
		d="M19.2307 6V20C19.2307 20.5304 19.02 21.0391 18.6449 21.4142C18.2699 21.7893 17.7611 22 17.2307 22H7.23071C6.70028 22 6.19157 21.7893 5.8165 21.4142C5.44143 21.0391 5.23071 20.5304 5.23071 20V6M8.23071 6V4C8.23071 3.46957 8.44143 2.96086 8.8165 2.58579C9.19157 2.21071 9.70028 2 10.2307 2H14.2307C14.7611 2 15.2699 2.21071 15.6449 2.58579C16.02 2.96086 16.2307 3.46957 16.2307 4V6"
		stroke="white" stroke-linecap="round" stroke-linejoin="round"/>
	<path d="M10.2307 11V17" stroke="white" stroke-linecap="round"
		  stroke-linejoin="round"/>
	<path d="M14.2307 11V17" stroke="white" stroke-linecap="round"
		  stroke-linejoin="round"/>
</svg>
