<svg xmlns="http://www.w3.org/2000/svg" width="117" height="117" viewBox="0 0 117 117" fill="none">
	<rect width="117" height="117" rx="58.5" fill="#9FA2AB" fill-opacity="0.08"/>
	<path
		d="M81.9067 67.2934L76.2505 44.5227C76.1016 43.9299 75.7866 43.3943 75.3441 42.9815C74.9015 42.5686 74.3506 42.2965 73.7588 42.1985L66.8471 41.0403C66.0851 40.9152 65.3048 41.0838 64.6579 41.5134C64.0111 41.943 63.5438 42.6028 63.3471 43.3645L63.3069 43.5308C63.2808 43.6364 63.2767 43.7465 63.2947 43.8539C63.3127 43.9613 63.3524 44.0636 63.4114 44.1544C63.4704 44.2452 63.5474 44.3224 63.6373 44.3811C63.7272 44.4398 63.8281 44.4787 63.9336 44.4953C65.5196 44.7329 67.0843 45.1006 68.6124 45.5948C68.9944 45.7125 69.3183 45.974 69.5183 46.3264C69.7183 46.6788 69.7796 47.0957 69.6896 47.4925C69.6378 47.6993 69.5452 47.8931 69.4174 48.062C69.2896 48.2309 69.1293 48.3713 68.9464 48.4747C68.7635 48.578 68.5618 48.6421 68.3537 48.6629C68.1456 48.6838 67.9355 48.661 67.7364 48.5959C62.0664 46.8211 56.0064 46.8142 50.3326 48.5764C49.9486 48.7082 49.5297 48.6839 49.1627 48.5087C48.7958 48.3334 48.5091 48.0207 48.3622 47.6353C48.2924 47.4376 48.2623 47.2276 48.2737 47.0177C48.2851 46.8078 48.3378 46.6025 48.4287 46.4139C48.5196 46.2253 48.6467 46.0573 48.8026 45.9199C48.9585 45.7825 49.1398 45.6786 49.3359 45.6144C50.8831 45.1114 52.4676 44.7371 54.074 44.4953C54.1795 44.4787 54.2805 44.4398 54.3704 44.3811C54.4603 44.3224 54.5372 44.2452 54.5962 44.1544C54.6552 44.0636 54.695 43.9613 54.713 43.8539C54.731 43.7465 54.7269 43.6364 54.7008 43.5308L54.6605 43.3645C54.4638 42.6021 53.9959 41.9419 53.3481 41.5126C52.7003 41.0832 51.9191 40.9155 51.1568 41.0422L44.2412 42.2004C43.6497 42.2983 43.0989 42.5702 42.6564 42.9826C42.2138 43.3951 41.8987 43.9303 41.7495 44.5227L36.0933 67.2934C35.9159 68.0091 35.9931 68.7659 36.3111 69.429C36.6291 70.0921 37.1672 70.6186 37.8298 70.9147L50.6718 76.7272C51.058 76.9024 51.4752 76.9952 51.8977 76.9998C52.3203 77.0044 52.7393 76.9208 53.129 76.7541C53.5188 76.5873 53.871 76.341 54.164 76.0302C54.457 75.7194 54.6847 75.3508 54.833 74.9469L55.502 73.0981C55.5418 72.9873 55.5567 72.8688 55.5453 72.7514C55.534 72.634 55.4968 72.5207 55.4365 72.4201C55.3762 72.3194 55.2944 72.2339 55.1972 72.1701C55.1 72.1063 54.99 72.0657 54.8752 72.0514C53.0132 71.8212 51.1761 71.4152 49.3876 70.8384C49.0072 70.7204 48.6847 70.4596 48.4852 70.1085C48.2857 69.7574 48.2239 69.3422 48.3124 68.9466C48.3636 68.7392 48.456 68.5448 48.5837 68.3753C48.7115 68.2058 48.8719 68.0648 49.0551 67.961C49.2383 67.8573 49.4404 67.7929 49.6489 67.772C49.8574 67.751 50.0679 67.7739 50.2674 67.8392C55.9587 69.6182 62.0413 69.6182 67.7326 67.8392C67.9318 67.7742 68.142 67.7515 68.3502 67.7724C68.5584 67.7934 68.7602 67.8577 68.9431 67.9612C69.1261 68.0647 69.2863 68.2054 69.414 68.3745C69.5418 68.5436 69.6342 68.7376 69.6857 68.9446C69.7752 69.3406 69.7139 69.7565 69.5143 70.1081C69.3146 70.4597 68.9916 70.7208 68.6104 70.8384C66.8227 71.4154 64.9862 71.8214 63.1248 72.0514C63.0101 72.0657 62.9 72.1063 62.8028 72.1701C62.7056 72.2339 62.6238 72.3194 62.5635 72.4201C62.5032 72.5207 62.466 72.634 62.4547 72.7514C62.4433 72.8688 62.4582 72.9873 62.498 73.0981L63.167 74.9469C63.3155 75.3506 63.5433 75.7191 63.8364 76.0297C64.1295 76.3403 64.4817 76.5865 64.8713 76.7532C65.261 76.9199 65.6799 77.0036 66.1024 76.9992C66.5248 76.9947 66.942 76.9021 67.3282 76.7272L80.1702 70.9147C80.8328 70.6186 81.3709 70.0921 81.6889 69.429C82.0069 68.7659 82.0841 68.0091 81.9067 67.2934ZM52.0998 62.913C51.6449 62.913 51.2002 62.7753 50.822 62.5173C50.4437 62.2593 50.1489 61.8927 49.9748 61.4637C49.8007 61.0347 49.7552 60.5627 49.8439 60.1073C49.9327 59.6519 50.1517 59.2335 50.4734 58.9052C50.7951 58.5769 51.2049 58.3533 51.6511 58.2627C52.0973 58.1721 52.5597 58.2186 52.98 58.3963C53.4003 58.574 53.7595 58.8749 54.0122 59.261C54.265 59.647 54.3999 60.1009 54.3999 60.5653C54.3999 61.1879 54.1575 61.7851 53.7262 62.2253C53.2949 62.6656 52.7098 62.913 52.0998 62.913ZM65.9002 62.913C65.4453 62.913 65.0006 62.7753 64.6224 62.5173C64.2441 62.2593 63.9493 61.8927 63.7752 61.4637C63.6011 61.0347 63.5556 60.5627 63.6443 60.1073C63.7331 59.6519 63.9521 59.2335 64.2738 58.9052C64.5955 58.5769 65.0053 58.3533 65.4515 58.2627C65.8976 58.1721 66.3601 58.2186 66.7804 58.3963C67.2007 58.574 67.5599 58.8749 67.8126 59.261C68.0654 59.647 68.2003 60.1009 68.2003 60.5653C68.2003 61.1879 67.9579 61.7851 67.5266 62.2253C67.0952 62.6656 66.5102 62.913 65.9002 62.913Z"
		fill="#9B9FAA" fill-opacity="0.24"/>
	<circle cx="74.5" cy="45.5" r="14" fill="#424249" stroke="#212024"/>
	<path
		d="M79.8385 44.3529L80.1589 44.0745C80.7043 43.5097 81.0061 42.7534 80.9993 41.9683C80.9925 41.1832 80.6776 40.4322 80.1224 39.877C79.5672 39.3218 78.8162 39.0069 78.0311 39.0001C77.2461 38.9933 76.4897 39.2951 75.925 39.8405L75.6465 40.1609"
		stroke="white" stroke-width="2" stroke-linecap="round" stroke-linejoin="round"/>
	<path
		d="M69.9256 45.8823L69.6052 46.2006C69.0597 46.846 68.7579 47.7104 68.7648 48.6077C68.7716 49.5049 69.0865 50.3632 69.6417 50.9977C70.1968 51.6322 70.9478 51.992 71.7329 51.9998C72.518 52.0076 73.2744 51.6627 73.8391 51.0394L74.1176 50.6732"
		stroke="white" stroke-width="2" stroke-linecap="round" stroke-linejoin="round"/>
	<path d="M79.4707 48.1763H81.0001" stroke="white" stroke-width="2" stroke-linecap="round" stroke-linejoin="round"/>
	<path d="M68 42.8237H70.2941" stroke="white" stroke-width="2" stroke-linecap="round" stroke-linejoin="round"/>
	<path d="M77.1758 50.4707V52.0001" stroke="white" stroke-width="2" stroke-linecap="round" stroke-linejoin="round"/>
	<path d="M71.8242 39V40.5294" stroke="white" stroke-width="2" stroke-linecap="round" stroke-linejoin="round"/>
</svg>